solid ASCII
  facet normal 0.000000e+00 -1.000000e+00 0.000000e+00
    outer loop
      vertex   3.220000e+01 -5.000000e+00 1.600000e+01
      vertex   3.220000e+01 -5.000000e+00 1.200000e+01
      vertex   3.520000e+01 -5.000000e+00 1.600000e+01
    endloop
  endfacet
  facet normal 0.000000e+00 -1.000000e+00 -0.000000e+00
    outer loop
      vertex   3.520000e+01 -5.000000e+00 1.600000e+01
      vertex   3.220000e+01 -5.000000e+00 1.200000e+01
      vertex   3.520000e+01 -5.000000e+00 1.200000e+01
    endloop
  endfacet
  facet normal -0.000000e+00 3.552714e-16 1.000000e+00
    outer loop
      vertex   3.220000e+01 5.000000e+00 1.600000e+01
      vertex   3.220000e+01 -5.000000e+00 1.600000e+01
      vertex   3.520000e+01 5.000000e+00 1.600000e+01
    endloop
  endfacet
  facet normal 0.000000e+00 3.552714e-16 1.000000e+00
    outer loop
      vertex   3.520000e+01 5.000000e+00 1.600000e+01
      vertex   3.220000e+01 -5.000000e+00 1.600000e+01
      vertex   3.520000e+01 -5.000000e+00 1.600000e+01
    endloop
  endfacet
  facet normal 0.000000e+00 1.000000e+00 0.000000e+00
    outer loop
      vertex   3.220000e+01 5.000000e+00 1.200000e+01
      vertex   3.220000e+01 5.000000e+00 1.600000e+01
      vertex   3.520000e+01 5.000000e+00 1.200000e+01
    endloop
  endfacet
  facet normal 0.000000e+00 1.000000e+00 -0.000000e+00
    outer loop
      vertex   3.520000e+01 5.000000e+00 1.200000e+01
      vertex   3.220000e+01 5.000000e+00 1.600000e+01
      vertex   3.520000e+01 5.000000e+00 1.600000e+01
    endloop
  endfacet
  facet normal 0.000000e+00 -1.776357e-16 -1.000000e+00
    outer loop
      vertex   3.220000e+01 -5.000000e+00 1.200000e+01
      vertex   3.220000e+01 5.000000e+00 1.200000e+01
      vertex   3.520000e+01 -5.000000e+00 1.200000e+01
    endloop
  endfacet
  facet normal 0.000000e+00 -1.776357e-16 -1.000000e+00
    outer loop
      vertex   3.520000e+01 -5.000000e+00 1.200000e+01
      vertex   3.220000e+01 5.000000e+00 1.200000e+01
      vertex   3.520000e+01 5.000000e+00 1.200000e+01
    endloop
  endfacet
  facet normal 1.000000e+00 -0.000000e+00 0.000000e+00
    outer loop
      vertex   3.520000e+01 -5.000000e+00 1.200000e+01
      vertex   3.520000e+01 5.000000e+00 1.200000e+01
      vertex   3.520000e+01 -5.000000e+00 1.600000e+01
    endloop
  endfacet
  facet normal 1.000000e+00 0.000000e+00 0.000000e+00
    outer loop
      vertex   3.520000e+01 -5.000000e+00 1.600000e+01
      vertex   3.520000e+01 5.000000e+00 1.200000e+01
      vertex   3.520000e+01 5.000000e+00 1.600000e+01
    endloop
  endfacet
  facet normal 0.000000e+00 -1.000000e+00 0.000000e+00
    outer loop
      vertex   2.920000e+01 -2.700000e+01 1.700000e+01
      vertex   2.920000e+01 -2.700000e+01 1.100000e+01
      vertex   3.220000e+01 -2.700000e+01 1.700000e+01
    endloop
  endfacet
  facet normal 0.000000e+00 -1.000000e+00 -0.000000e+00
    outer loop
      vertex   3.220000e+01 -2.700000e+01 1.700000e+01
      vertex   2.920000e+01 -2.700000e+01 1.100000e+01
      vertex   3.220000e+01 -2.700000e+01 1.100000e+01
    endloop
  endfacet
  facet normal -0.000000e+00 6.579099e-17 1.000000e+00
    outer loop
      vertex   2.920000e+01 2.700000e+01 1.700000e+01
      vertex   2.920000e+01 -2.700000e+01 1.700000e+01
      vertex   3.220000e+01 2.700000e+01 1.700000e+01
    endloop
  endfacet
  facet normal 0.000000e+00 6.579099e-17 1.000000e+00
    outer loop
      vertex   3.220000e+01 2.700000e+01 1.700000e+01
      vertex   2.920000e+01 -2.700000e+01 1.700000e+01
      vertex   3.220000e+01 -2.700000e+01 1.700000e+01
    endloop
  endfacet
  facet normal 0.000000e+00 1.000000e+00 0.000000e+00
    outer loop
      vertex   2.920000e+01 2.700000e+01 1.100000e+01
      vertex   2.920000e+01 2.700000e+01 1.700000e+01
      vertex   3.220000e+01 2.700000e+01 1.100000e+01
    endloop
  endfacet
  facet normal 0.000000e+00 1.000000e+00 -0.000000e+00
    outer loop
      vertex   3.220000e+01 2.700000e+01 1.100000e+01
      vertex   2.920000e+01 2.700000e+01 1.700000e+01
      vertex   3.220000e+01 2.700000e+01 1.700000e+01
    endloop
  endfacet
  facet normal 0.000000e+00 -6.579099e-17 -1.000000e+00
    outer loop
      vertex   2.920000e+01 -2.700000e+01 1.100000e+01
      vertex   2.920000e+01 2.700000e+01 1.100000e+01
      vertex   3.220000e+01 -2.700000e+01 1.100000e+01
    endloop
  endfacet
  facet normal 0.000000e+00 -6.579099e-17 -1.000000e+00
    outer loop
      vertex   3.220000e+01 -2.700000e+01 1.100000e+01
      vertex   2.920000e+01 2.700000e+01 1.100000e+01
      vertex   3.220000e+01 2.700000e+01 1.100000e+01
    endloop
  endfacet
  facet normal 1.000000e+00 0.000000e+00 0.000000e+00
    outer loop
      vertex   3.220000e+01 -2.700000e+01 1.700000e+01
      vertex   3.220000e+01 -2.700000e+01 1.100000e+01
      vertex   3.220000e+01 -5.000000e+00 1.200000e+01
    endloop
  endfacet
  facet normal 1.000000e+00 0.000000e+00 0.000000e+00
    outer loop
      vertex   3.220000e+01 -5.000000e+00 1.200000e+01
      vertex   3.220000e+01 -2.700000e+01 1.100000e+01
      vertex   3.220000e+01 2.700000e+01 1.100000e+01
    endloop
  endfacet
  facet normal 1.000000e+00 0.000000e+00 0.000000e+00
    outer loop
      vertex   3.220000e+01 -5.000000e+00 1.200000e+01
      vertex   3.220000e+01 2.700000e+01 1.100000e+01
      vertex   3.220000e+01 5.000000e+00 1.200000e+01
    endloop
  endfacet
  facet normal 1.000000e+00 -0.000000e+00 0.000000e+00
    outer loop
      vertex   3.220000e+01 5.000000e+00 1.200000e+01
      vertex   3.220000e+01 2.700000e+01 1.100000e+01
      vertex   3.220000e+01 2.700000e+01 1.700000e+01
    endloop
  endfacet
  facet normal 1.000000e+00 0.000000e+00 0.000000e+00
    outer loop
      vertex   3.220000e+01 5.000000e+00 1.200000e+01
      vertex   3.220000e+01 2.700000e+01 1.700000e+01
      vertex   3.220000e+01 5.000000e+00 1.600000e+01
    endloop
  endfacet
  facet normal 1.000000e+00 0.000000e+00 -0.000000e+00
    outer loop
      vertex   3.220000e+01 5.000000e+00 1.600000e+01
      vertex   3.220000e+01 2.700000e+01 1.700000e+01
      vertex   3.220000e+01 -2.700000e+01 1.700000e+01
    endloop
  endfacet
  facet normal 1.000000e+00 0.000000e+00 0.000000e+00
    outer loop
      vertex   3.220000e+01 5.000000e+00 1.600000e+01
      vertex   3.220000e+01 -2.700000e+01 1.700000e+01
      vertex   3.220000e+01 -5.000000e+00 1.600000e+01
    endloop
  endfacet
  facet normal 1.000000e+00 0.000000e+00 0.000000e+00
    outer loop
      vertex   3.220000e+01 -5.000000e+00 1.600000e+01
      vertex   3.220000e+01 -2.700000e+01 1.700000e+01
      vertex   3.220000e+01 -5.000000e+00 1.200000e+01
    endloop
  endfacet
  facet normal -1.000000e+00 0.000000e+00 0.000000e+00
    outer loop
      vertex   2.920000e+01 2.700000e+01 1.100000e+01
      vertex   2.920000e+01 -2.700000e+01 1.100000e+01
      vertex   2.920000e+01 2.700000e+01 1.700000e+01
    endloop
  endfacet
  facet normal -1.000000e+00 -0.000000e+00 0.000000e+00
    outer loop
      vertex   2.920000e+01 2.700000e+01 1.700000e+01
      vertex   2.920000e+01 -2.700000e+01 1.100000e+01
      vertex   2.920000e+01 -2.700000e+01 1.700000e+01
    endloop
  endfacet
endsolid
