solid ASCII
  facet normal -1.000000e+00 0.000000e+00 0.000000e+00
    outer loop
      vertex   -3.180000e+01 -3.500000e+01 8.500000e+00
      vertex   -3.180000e+01 -3.500000e+01 2.350000e+01
      vertex   -3.180000e+01 -3.400000e+01 8.500000e+00
    endloop
  endfacet
  facet normal -1.000000e+00 0.000000e+00 0.000000e+00
    outer loop
      vertex   -3.180000e+01 -3.400000e+01 8.500000e+00
      vertex   -3.180000e+01 -3.500000e+01 2.350000e+01
      vertex   -3.180000e+01 -3.400000e+01 2.350000e+01
    endloop
  endfacet
  facet normal 0.000000e+00 0.000000e+00 -1.000000e+00
    outer loop
      vertex   -2.180000e+01 -3.500000e+01 8.500000e+00
      vertex   -3.180000e+01 -3.500000e+01 8.500000e+00
      vertex   -2.180000e+01 -3.400000e+01 8.500000e+00
    endloop
  endfacet
  facet normal -0.000000e+00 0.000000e+00 -1.000000e+00
    outer loop
      vertex   -2.180000e+01 -3.400000e+01 8.500000e+00
      vertex   -3.180000e+01 -3.500000e+01 8.500000e+00
      vertex   -3.180000e+01 -3.400000e+01 8.500000e+00
    endloop
  endfacet
  facet normal 1.000000e+00 -0.000000e+00 0.000000e+00
    outer loop
      vertex   -2.180000e+01 -3.500000e+01 2.350000e+01
      vertex   -2.180000e+01 -3.500000e+01 8.500000e+00
      vertex   -2.180000e+01 -3.400000e+01 2.350000e+01
    endloop
  endfacet
  facet normal 1.000000e+00 0.000000e+00 0.000000e+00
    outer loop
      vertex   -2.180000e+01 -3.400000e+01 2.350000e+01
      vertex   -2.180000e+01 -3.500000e+01 8.500000e+00
      vertex   -2.180000e+01 -3.400000e+01 8.500000e+00
    endloop
  endfacet
  facet normal 0.000000e+00 0.000000e+00 1.000000e+00
    outer loop
      vertex   -3.180000e+01 -3.500000e+01 2.350000e+01
      vertex   -2.180000e+01 -3.500000e+01 2.350000e+01
      vertex   -3.180000e+01 -3.400000e+01 2.350000e+01
    endloop
  endfacet
  facet normal -0.000000e+00 0.000000e+00 1.000000e+00
    outer loop
      vertex   -3.180000e+01 -3.400000e+01 2.350000e+01
      vertex   -2.180000e+01 -3.500000e+01 2.350000e+01
      vertex   -2.180000e+01 -3.400000e+01 2.350000e+01
    endloop
  endfacet
  facet normal -0.000000e+00 1.000000e+00 0.000000e+00
    outer loop
      vertex   -3.180000e+01 -3.400000e+01 2.350000e+01
      vertex   -2.180000e+01 -3.400000e+01 2.350000e+01
      vertex   -3.180000e+01 -3.400000e+01 8.500000e+00
    endloop
  endfacet
  facet normal 0.000000e+00 1.000000e+00 0.000000e+00
    outer loop
      vertex   -3.180000e+01 -3.400000e+01 8.500000e+00
      vertex   -2.180000e+01 -3.400000e+01 2.350000e+01
      vertex   -2.180000e+01 -3.400000e+01 8.500000e+00
    endloop
  endfacet
  facet normal -0.000000e+00 -1.000000e+00 -0.000000e+00
    outer loop
      vertex   -2.180000e+01 -3.500000e+01 2.350000e+01
      vertex   -3.180000e+01 -3.500000e+01 2.350000e+01
      vertex   -2.180000e+01 -3.500000e+01 8.500000e+00
    endloop
  endfacet
  facet normal 0.000000e+00 -1.000000e+00 0.000000e+00
    outer loop
      vertex   -2.180000e+01 -3.500000e+01 8.500000e+00
      vertex   -3.180000e+01 -3.500000e+01 2.350000e+01
      vertex   -3.180000e+01 -3.500000e+01 8.500000e+00
    endloop
  endfacet
  facet normal 0.000000e+00 1.000000e+00 0.000000e+00
    outer loop
      vertex   -3.480000e+01 3.200000e+01 8.500000e+00
      vertex   -3.480000e+01 3.200000e+01 2.350000e+01
      vertex   -3.380000e+01 3.200000e+01 8.500000e+00
    endloop
  endfacet
  facet normal 0.000000e+00 1.000000e+00 -0.000000e+00
    outer loop
      vertex   -3.380000e+01 3.200000e+01 8.500000e+00
      vertex   -3.480000e+01 3.200000e+01 2.350000e+01
      vertex   -3.380000e+01 3.200000e+01 2.350000e+01
    endloop
  endfacet
  facet normal 0.000000e+00 0.000000e+00 -1.000000e+00
    outer loop
      vertex   -3.480000e+01 2.200000e+01 8.500000e+00
      vertex   -3.480000e+01 3.200000e+01 8.500000e+00
      vertex   -3.380000e+01 2.200000e+01 8.500000e+00
    endloop
  endfacet
  facet normal 0.000000e+00 0.000000e+00 -1.000000e+00
    outer loop
      vertex   -3.380000e+01 2.200000e+01 8.500000e+00
      vertex   -3.480000e+01 3.200000e+01 8.500000e+00
      vertex   -3.380000e+01 3.200000e+01 8.500000e+00
    endloop
  endfacet
  facet normal 0.000000e+00 -1.000000e+00 0.000000e+00
    outer loop
      vertex   -3.480000e+01 2.200000e+01 2.350000e+01
      vertex   -3.480000e+01 2.200000e+01 8.500000e+00
      vertex   -3.380000e+01 2.200000e+01 2.350000e+01
    endloop
  endfacet
  facet normal 0.000000e+00 -1.000000e+00 -0.000000e+00
    outer loop
      vertex   -3.380000e+01 2.200000e+01 2.350000e+01
      vertex   -3.480000e+01 2.200000e+01 8.500000e+00
      vertex   -3.380000e+01 2.200000e+01 8.500000e+00
    endloop
  endfacet
  facet normal -0.000000e+00 0.000000e+00 1.000000e+00
    outer loop
      vertex   -3.480000e+01 3.200000e+01 2.350000e+01
      vertex   -3.480000e+01 2.200000e+01 2.350000e+01
      vertex   -3.380000e+01 3.200000e+01 2.350000e+01
    endloop
  endfacet
  facet normal 0.000000e+00 0.000000e+00 1.000000e+00
    outer loop
      vertex   -3.380000e+01 3.200000e+01 2.350000e+01
      vertex   -3.480000e+01 2.200000e+01 2.350000e+01
      vertex   -3.380000e+01 2.200000e+01 2.350000e+01
    endloop
  endfacet
  facet normal 1.000000e+00 0.000000e+00 0.000000e+00
    outer loop
      vertex   -3.380000e+01 3.200000e+01 2.350000e+01
      vertex   -3.380000e+01 2.200000e+01 2.350000e+01
      vertex   -3.380000e+01 3.200000e+01 8.500000e+00
    endloop
  endfacet
  facet normal 1.000000e+00 0.000000e+00 0.000000e+00
    outer loop
      vertex   -3.380000e+01 3.200000e+01 8.500000e+00
      vertex   -3.380000e+01 2.200000e+01 2.350000e+01
      vertex   -3.380000e+01 2.200000e+01 8.500000e+00
    endloop
  endfacet
  facet normal -1.000000e+00 0.000000e+00 0.000000e+00
    outer loop
      vertex   -3.480000e+01 2.200000e+01 2.350000e+01
      vertex   -3.480000e+01 3.200000e+01 2.350000e+01
      vertex   -3.480000e+01 2.200000e+01 8.500000e+00
    endloop
  endfacet
  facet normal -1.000000e+00 0.000000e+00 0.000000e+00
    outer loop
      vertex   -3.480000e+01 2.200000e+01 8.500000e+00
      vertex   -3.480000e+01 3.200000e+01 2.350000e+01
      vertex   -3.480000e+01 3.200000e+01 8.500000e+00
    endloop
  endfacet
  facet normal -1.000000e+00 0.000000e+00 0.000000e+00
    outer loop
      vertex   1.820000e+01 -3.500000e+01 8.500000e+00
      vertex   1.820000e+01 -3.500000e+01 2.350000e+01
      vertex   1.820000e+01 -3.400000e+01 8.500000e+00
    endloop
  endfacet
  facet normal -1.000000e+00 0.000000e+00 0.000000e+00
    outer loop
      vertex   1.820000e+01 -3.400000e+01 8.500000e+00
      vertex   1.820000e+01 -3.500000e+01 2.350000e+01
      vertex   1.820000e+01 -3.400000e+01 2.350000e+01
    endloop
  endfacet
  facet normal 0.000000e+00 0.000000e+00 -1.000000e+00
    outer loop
      vertex   2.820000e+01 -3.500000e+01 8.500000e+00
      vertex   1.820000e+01 -3.500000e+01 8.500000e+00
      vertex   2.820000e+01 -3.400000e+01 8.500000e+00
    endloop
  endfacet
  facet normal -0.000000e+00 0.000000e+00 -1.000000e+00
    outer loop
      vertex   2.820000e+01 -3.400000e+01 8.500000e+00
      vertex   1.820000e+01 -3.500000e+01 8.500000e+00
      vertex   1.820000e+01 -3.400000e+01 8.500000e+00
    endloop
  endfacet
  facet normal 1.000000e+00 -0.000000e+00 0.000000e+00
    outer loop
      vertex   2.820000e+01 -3.500000e+01 2.350000e+01
      vertex   2.820000e+01 -3.500000e+01 8.500000e+00
      vertex   2.820000e+01 -3.400000e+01 2.350000e+01
    endloop
  endfacet
  facet normal 1.000000e+00 0.000000e+00 0.000000e+00
    outer loop
      vertex   2.820000e+01 -3.400000e+01 2.350000e+01
      vertex   2.820000e+01 -3.500000e+01 8.500000e+00
      vertex   2.820000e+01 -3.400000e+01 8.500000e+00
    endloop
  endfacet
  facet normal 0.000000e+00 0.000000e+00 1.000000e+00
    outer loop
      vertex   1.820000e+01 -3.500000e+01 2.350000e+01
      vertex   2.820000e+01 -3.500000e+01 2.350000e+01
      vertex   1.820000e+01 -3.400000e+01 2.350000e+01
    endloop
  endfacet
  facet normal -0.000000e+00 0.000000e+00 1.000000e+00
    outer loop
      vertex   1.820000e+01 -3.400000e+01 2.350000e+01
      vertex   2.820000e+01 -3.500000e+01 2.350000e+01
      vertex   2.820000e+01 -3.400000e+01 2.350000e+01
    endloop
  endfacet
  facet normal -0.000000e+00 1.000000e+00 0.000000e+00
    outer loop
      vertex   1.820000e+01 -3.400000e+01 2.350000e+01
      vertex   2.820000e+01 -3.400000e+01 2.350000e+01
      vertex   1.820000e+01 -3.400000e+01 8.500000e+00
    endloop
  endfacet
  facet normal 0.000000e+00 1.000000e+00 0.000000e+00
    outer loop
      vertex   1.820000e+01 -3.400000e+01 8.500000e+00
      vertex   2.820000e+01 -3.400000e+01 2.350000e+01
      vertex   2.820000e+01 -3.400000e+01 8.500000e+00
    endloop
  endfacet
  facet normal -0.000000e+00 -1.000000e+00 -0.000000e+00
    outer loop
      vertex   2.820000e+01 -3.500000e+01 2.350000e+01
      vertex   1.820000e+01 -3.500000e+01 2.350000e+01
      vertex   2.820000e+01 -3.500000e+01 8.500000e+00
    endloop
  endfacet
  facet normal 0.000000e+00 -1.000000e+00 0.000000e+00
    outer loop
      vertex   2.820000e+01 -3.500000e+01 8.500000e+00
      vertex   1.820000e+01 -3.500000e+01 2.350000e+01
      vertex   1.820000e+01 -3.500000e+01 8.500000e+00
    endloop
  endfacet
  facet normal -1.000000e+00 0.000000e+00 0.000000e+00
    outer loop
      vertex   -3.180000e+01 3.400000e+01 8.500000e+00
      vertex   -3.180000e+01 3.400000e+01 2.350000e+01
      vertex   -3.180000e+01 3.500000e+01 8.500000e+00
    endloop
  endfacet
  facet normal -1.000000e+00 0.000000e+00 0.000000e+00
    outer loop
      vertex   -3.180000e+01 3.500000e+01 8.500000e+00
      vertex   -3.180000e+01 3.400000e+01 2.350000e+01
      vertex   -3.180000e+01 3.500000e+01 2.350000e+01
    endloop
  endfacet
  facet normal 0.000000e+00 0.000000e+00 -1.000000e+00
    outer loop
      vertex   -2.180000e+01 3.400000e+01 8.500000e+00
      vertex   -3.180000e+01 3.400000e+01 8.500000e+00
      vertex   -2.180000e+01 3.500000e+01 8.500000e+00
    endloop
  endfacet
  facet normal -0.000000e+00 0.000000e+00 -1.000000e+00
    outer loop
      vertex   -2.180000e+01 3.500000e+01 8.500000e+00
      vertex   -3.180000e+01 3.400000e+01 8.500000e+00
      vertex   -3.180000e+01 3.500000e+01 8.500000e+00
    endloop
  endfacet
  facet normal 1.000000e+00 -0.000000e+00 0.000000e+00
    outer loop
      vertex   -2.180000e+01 3.400000e+01 2.350000e+01
      vertex   -2.180000e+01 3.400000e+01 8.500000e+00
      vertex   -2.180000e+01 3.500000e+01 2.350000e+01
    endloop
  endfacet
  facet normal 1.000000e+00 0.000000e+00 0.000000e+00
    outer loop
      vertex   -2.180000e+01 3.500000e+01 2.350000e+01
      vertex   -2.180000e+01 3.400000e+01 8.500000e+00
      vertex   -2.180000e+01 3.500000e+01 8.500000e+00
    endloop
  endfacet
  facet normal 0.000000e+00 0.000000e+00 1.000000e+00
    outer loop
      vertex   -3.180000e+01 3.400000e+01 2.350000e+01
      vertex   -2.180000e+01 3.400000e+01 2.350000e+01
      vertex   -3.180000e+01 3.500000e+01 2.350000e+01
    endloop
  endfacet
  facet normal -0.000000e+00 0.000000e+00 1.000000e+00
    outer loop
      vertex   -3.180000e+01 3.500000e+01 2.350000e+01
      vertex   -2.180000e+01 3.400000e+01 2.350000e+01
      vertex   -2.180000e+01 3.500000e+01 2.350000e+01
    endloop
  endfacet
  facet normal -0.000000e+00 1.000000e+00 0.000000e+00
    outer loop
      vertex   -3.180000e+01 3.500000e+01 2.350000e+01
      vertex   -2.180000e+01 3.500000e+01 2.350000e+01
      vertex   -3.180000e+01 3.500000e+01 8.500000e+00
    endloop
  endfacet
  facet normal 0.000000e+00 1.000000e+00 0.000000e+00
    outer loop
      vertex   -3.180000e+01 3.500000e+01 8.500000e+00
      vertex   -2.180000e+01 3.500000e+01 2.350000e+01
      vertex   -2.180000e+01 3.500000e+01 8.500000e+00
    endloop
  endfacet
  facet normal -0.000000e+00 -1.000000e+00 -0.000000e+00
    outer loop
      vertex   -2.180000e+01 3.400000e+01 2.350000e+01
      vertex   -3.180000e+01 3.400000e+01 2.350000e+01
      vertex   -2.180000e+01 3.400000e+01 8.500000e+00
    endloop
  endfacet
  facet normal 0.000000e+00 -1.000000e+00 0.000000e+00
    outer loop
      vertex   -2.180000e+01 3.400000e+01 8.500000e+00
      vertex   -3.180000e+01 3.400000e+01 2.350000e+01
      vertex   -3.180000e+01 3.400000e+01 8.500000e+00
    endloop
  endfacet
  facet normal -1.000000e+00 0.000000e+00 0.000000e+00
    outer loop
      vertex   1.820000e+01 3.400000e+01 8.500000e+00
      vertex   1.820000e+01 3.400000e+01 2.350000e+01
      vertex   1.820000e+01 3.500000e+01 8.500000e+00
    endloop
  endfacet
  facet normal -1.000000e+00 0.000000e+00 0.000000e+00
    outer loop
      vertex   1.820000e+01 3.500000e+01 8.500000e+00
      vertex   1.820000e+01 3.400000e+01 2.350000e+01
      vertex   1.820000e+01 3.500000e+01 2.350000e+01
    endloop
  endfacet
  facet normal 0.000000e+00 0.000000e+00 -1.000000e+00
    outer loop
      vertex   2.820000e+01 3.400000e+01 8.500000e+00
      vertex   1.820000e+01 3.400000e+01 8.500000e+00
      vertex   2.820000e+01 3.500000e+01 8.500000e+00
    endloop
  endfacet
  facet normal -0.000000e+00 0.000000e+00 -1.000000e+00
    outer loop
      vertex   2.820000e+01 3.500000e+01 8.500000e+00
      vertex   1.820000e+01 3.400000e+01 8.500000e+00
      vertex   1.820000e+01 3.500000e+01 8.500000e+00
    endloop
  endfacet
  facet normal 1.000000e+00 -0.000000e+00 0.000000e+00
    outer loop
      vertex   2.820000e+01 3.400000e+01 2.350000e+01
      vertex   2.820000e+01 3.400000e+01 8.500000e+00
      vertex   2.820000e+01 3.500000e+01 2.350000e+01
    endloop
  endfacet
  facet normal 1.000000e+00 0.000000e+00 0.000000e+00
    outer loop
      vertex   2.820000e+01 3.500000e+01 2.350000e+01
      vertex   2.820000e+01 3.400000e+01 8.500000e+00
      vertex   2.820000e+01 3.500000e+01 8.500000e+00
    endloop
  endfacet
  facet normal 0.000000e+00 0.000000e+00 1.000000e+00
    outer loop
      vertex   1.820000e+01 3.400000e+01 2.350000e+01
      vertex   2.820000e+01 3.400000e+01 2.350000e+01
      vertex   1.820000e+01 3.500000e+01 2.350000e+01
    endloop
  endfacet
  facet normal -0.000000e+00 0.000000e+00 1.000000e+00
    outer loop
      vertex   1.820000e+01 3.500000e+01 2.350000e+01
      vertex   2.820000e+01 3.400000e+01 2.350000e+01
      vertex   2.820000e+01 3.500000e+01 2.350000e+01
    endloop
  endfacet
  facet normal -0.000000e+00 1.000000e+00 0.000000e+00
    outer loop
      vertex   1.820000e+01 3.500000e+01 2.350000e+01
      vertex   2.820000e+01 3.500000e+01 2.350000e+01
      vertex   1.820000e+01 3.500000e+01 8.500000e+00
    endloop
  endfacet
  facet normal 0.000000e+00 1.000000e+00 0.000000e+00
    outer loop
      vertex   1.820000e+01 3.500000e+01 8.500000e+00
      vertex   2.820000e+01 3.500000e+01 2.350000e+01
      vertex   2.820000e+01 3.500000e+01 8.500000e+00
    endloop
  endfacet
  facet normal -0.000000e+00 -1.000000e+00 -0.000000e+00
    outer loop
      vertex   2.820000e+01 3.400000e+01 2.350000e+01
      vertex   1.820000e+01 3.400000e+01 2.350000e+01
      vertex   2.820000e+01 3.400000e+01 8.500000e+00
    endloop
  endfacet
  facet normal 0.000000e+00 -1.000000e+00 0.000000e+00
    outer loop
      vertex   2.820000e+01 3.400000e+01 8.500000e+00
      vertex   1.820000e+01 3.400000e+01 2.350000e+01
      vertex   1.820000e+01 3.400000e+01 8.500000e+00
    endloop
  endfacet
  facet normal 0.000000e+00 1.000000e+00 0.000000e+00
    outer loop
      vertex   -3.480000e+01 -2.100000e+01 8.500000e+00
      vertex   -3.480000e+01 -2.100000e+01 2.350000e+01
      vertex   -3.380000e+01 -2.100000e+01 8.500000e+00
    endloop
  endfacet
  facet normal 0.000000e+00 1.000000e+00 -0.000000e+00
    outer loop
      vertex   -3.380000e+01 -2.100000e+01 8.500000e+00
      vertex   -3.480000e+01 -2.100000e+01 2.350000e+01
      vertex   -3.380000e+01 -2.100000e+01 2.350000e+01
    endloop
  endfacet
  facet normal 0.000000e+00 0.000000e+00 -1.000000e+00
    outer loop
      vertex   -3.480000e+01 -3.100000e+01 8.500000e+00
      vertex   -3.480000e+01 -2.100000e+01 8.500000e+00
      vertex   -3.380000e+01 -3.100000e+01 8.500000e+00
    endloop
  endfacet
  facet normal 0.000000e+00 0.000000e+00 -1.000000e+00
    outer loop
      vertex   -3.380000e+01 -3.100000e+01 8.500000e+00
      vertex   -3.480000e+01 -2.100000e+01 8.500000e+00
      vertex   -3.380000e+01 -2.100000e+01 8.500000e+00
    endloop
  endfacet
  facet normal 0.000000e+00 -1.000000e+00 0.000000e+00
    outer loop
      vertex   -3.480000e+01 -3.100000e+01 2.350000e+01
      vertex   -3.480000e+01 -3.100000e+01 8.500000e+00
      vertex   -3.380000e+01 -3.100000e+01 2.350000e+01
    endloop
  endfacet
  facet normal 0.000000e+00 -1.000000e+00 -0.000000e+00
    outer loop
      vertex   -3.380000e+01 -3.100000e+01 2.350000e+01
      vertex   -3.480000e+01 -3.100000e+01 8.500000e+00
      vertex   -3.380000e+01 -3.100000e+01 8.500000e+00
    endloop
  endfacet
  facet normal -0.000000e+00 0.000000e+00 1.000000e+00
    outer loop
      vertex   -3.480000e+01 -2.100000e+01 2.350000e+01
      vertex   -3.480000e+01 -3.100000e+01 2.350000e+01
      vertex   -3.380000e+01 -2.100000e+01 2.350000e+01
    endloop
  endfacet
  facet normal 0.000000e+00 0.000000e+00 1.000000e+00
    outer loop
      vertex   -3.380000e+01 -2.100000e+01 2.350000e+01
      vertex   -3.480000e+01 -3.100000e+01 2.350000e+01
      vertex   -3.380000e+01 -3.100000e+01 2.350000e+01
    endloop
  endfacet
  facet normal 1.000000e+00 0.000000e+00 0.000000e+00
    outer loop
      vertex   -3.380000e+01 -2.100000e+01 2.350000e+01
      vertex   -3.380000e+01 -3.100000e+01 2.350000e+01
      vertex   -3.380000e+01 -2.100000e+01 8.500000e+00
    endloop
  endfacet
  facet normal 1.000000e+00 0.000000e+00 0.000000e+00
    outer loop
      vertex   -3.380000e+01 -2.100000e+01 8.500000e+00
      vertex   -3.380000e+01 -3.100000e+01 2.350000e+01
      vertex   -3.380000e+01 -3.100000e+01 8.500000e+00
    endloop
  endfacet
  facet normal -1.000000e+00 0.000000e+00 0.000000e+00
    outer loop
      vertex   -3.480000e+01 -3.100000e+01 2.350000e+01
      vertex   -3.480000e+01 -2.100000e+01 2.350000e+01
      vertex   -3.480000e+01 -3.100000e+01 8.500000e+00
    endloop
  endfacet
  facet normal -1.000000e+00 0.000000e+00 0.000000e+00
    outer loop
      vertex   -3.480000e+01 -3.100000e+01 8.500000e+00
      vertex   -3.480000e+01 -2.100000e+01 2.350000e+01
      vertex   -3.480000e+01 -2.100000e+01 8.500000e+00
    endloop
  endfacet
endsolid
