solid ASCII
  facet normal -0.000000e+00 -0.000000e+00 -1.000000e+00
    outer loop
      vertex   -3.900000e+01 3.850000e+01 -3.700000e+01
      vertex   -3.900000e+01 -3.450000e+01 -3.700000e+01
      vertex   -4.700000e+01 3.850000e+01 -3.700000e+01
    endloop
  endfacet
  facet normal 0.000000e+00 0.000000e+00 -1.000000e+00
    outer loop
      vertex   -4.700000e+01 3.850000e+01 -3.700000e+01
      vertex   -3.900000e+01 -3.450000e+01 -3.700000e+01
      vertex   -4.700000e+01 -3.450000e+01 -3.700000e+01
    endloop
  endfacet
  facet normal 0.000000e+00 1.000000e+00 0.000000e+00
    outer loop
      vertex   -3.900000e+01 3.850000e+01 3.600000e+01
      vertex   -3.900000e+01 3.850000e+01 -3.700000e+01
      vertex   -4.700000e+01 3.850000e+01 3.600000e+01
    endloop
  endfacet
  facet normal 0.000000e+00 1.000000e+00 0.000000e+00
    outer loop
      vertex   -4.700000e+01 3.850000e+01 3.600000e+01
      vertex   -3.900000e+01 3.850000e+01 -3.700000e+01
      vertex   -4.700000e+01 3.850000e+01 -3.700000e+01
    endloop
  endfacet
  facet normal 0.000000e+00 0.000000e+00 1.000000e+00
    outer loop
      vertex   -3.900000e+01 -3.450000e+01 3.600000e+01
      vertex   -3.900000e+01 3.850000e+01 3.600000e+01
      vertex   -4.700000e+01 -3.450000e+01 3.600000e+01
    endloop
  endfacet
  facet normal 0.000000e+00 -0.000000e+00 1.000000e+00
    outer loop
      vertex   -4.700000e+01 -3.450000e+01 3.600000e+01
      vertex   -3.900000e+01 3.850000e+01 3.600000e+01
      vertex   -4.700000e+01 3.850000e+01 3.600000e+01
    endloop
  endfacet
  facet normal 8.881784e-16 -1.000000e+00 2.593515e-31
    outer loop
      vertex   -3.900000e+01 -3.450000e+01 -3.700000e+01
      vertex   -3.900000e+01 -3.450000e+01 3.600000e+01
      vertex   -4.700000e+01 -3.450000e+01 -3.700000e+01
    endloop
  endfacet
  facet normal 8.881784e-16 -1.000000e+00 2.593515e-31
    outer loop
      vertex   -4.700000e+01 -3.450000e+01 -3.700000e+01
      vertex   -3.900000e+01 -3.450000e+01 3.600000e+01
      vertex   -4.700000e+01 -3.450000e+01 3.600000e+01
    endloop
  endfacet
  facet normal -1.000000e+00 -4.866731e-16 -2.920039e-16
    outer loop
      vertex   -4.700000e+01 -3.450000e+01 -3.700000e+01
      vertex   -4.700000e+01 -3.450000e+01 3.600000e+01
      vertex   -4.700000e+01 3.850000e+01 -3.700000e+01
    endloop
  endfacet
  facet normal -1.000000e+00 -4.866731e-16 -2.920039e-16
    outer loop
      vertex   -4.700000e+01 3.850000e+01 -3.700000e+01
      vertex   -4.700000e+01 -3.450000e+01 3.600000e+01
      vertex   -4.700000e+01 3.850000e+01 3.600000e+01
    endloop
  endfacet
  facet normal 1.000000e+00 4.866731e-16 2.920039e-16
    outer loop
      vertex   -3.900000e+01 -3.450000e+01 3.600000e+01
      vertex   -3.900000e+01 -3.450000e+01 -3.700000e+01
      vertex   -3.900000e+01 3.850000e+01 3.600000e+01
    endloop
  endfacet
  facet normal 1.000000e+00 4.866731e-16 2.920039e-16
    outer loop
      vertex   -3.900000e+01 3.850000e+01 3.600000e+01
      vertex   -3.900000e+01 -3.450000e+01 -3.700000e+01
      vertex   -3.900000e+01 3.850000e+01 -3.700000e+01
    endloop
  endfacet
endsolid
