solid ASCII
  facet normal -0.000000e+00 -1.000000e+00 -0.000000e+00
    outer loop
      vertex   4.425000e+01 -6.000000e+00 -3.950000e+01
      vertex   4.175000e+01 -6.000000e+00 -3.950000e+01
      vertex   4.425000e+01 -6.000000e+00 -4.350000e+01
    endloop
  endfacet
  facet normal 0.000000e+00 -1.000000e+00 0.000000e+00
    outer loop
      vertex   4.425000e+01 -6.000000e+00 -4.350000e+01
      vertex   4.175000e+01 -6.000000e+00 -3.950000e+01
      vertex   4.175000e+01 -6.000000e+00 -4.350000e+01
    endloop
  endfacet
  facet normal 1.000000e+00 0.000000e+00 0.000000e+00
    outer loop
      vertex   4.425000e+01 2.000000e+00 -3.950000e+01
      vertex   4.425000e+01 -6.000000e+00 -3.950000e+01
      vertex   4.425000e+01 2.000000e+00 -4.350000e+01
    endloop
  endfacet
  facet normal 1.000000e+00 0.000000e+00 0.000000e+00
    outer loop
      vertex   4.425000e+01 2.000000e+00 -4.350000e+01
      vertex   4.425000e+01 -6.000000e+00 -3.950000e+01
      vertex   4.425000e+01 -6.000000e+00 -4.350000e+01
    endloop
  endfacet
  facet normal -0.000000e+00 1.000000e+00 0.000000e+00
    outer loop
      vertex   4.175000e+01 2.000000e+00 -3.950000e+01
      vertex   4.425000e+01 2.000000e+00 -3.950000e+01
      vertex   4.175000e+01 2.000000e+00 -4.350000e+01
    endloop
  endfacet
  facet normal 0.000000e+00 1.000000e+00 0.000000e+00
    outer loop
      vertex   4.175000e+01 2.000000e+00 -4.350000e+01
      vertex   4.425000e+01 2.000000e+00 -3.950000e+01
      vertex   4.425000e+01 2.000000e+00 -4.350000e+01
    endloop
  endfacet
  facet normal -1.000000e+00 0.000000e+00 0.000000e+00
    outer loop
      vertex   4.175000e+01 -6.000000e+00 -3.950000e+01
      vertex   4.175000e+01 2.000000e+00 -3.950000e+01
      vertex   4.175000e+01 -6.000000e+00 -4.350000e+01
    endloop
  endfacet
  facet normal -1.000000e+00 0.000000e+00 0.000000e+00
    outer loop
      vertex   4.175000e+01 -6.000000e+00 -4.350000e+01
      vertex   4.175000e+01 2.000000e+00 -3.950000e+01
      vertex   4.175000e+01 2.000000e+00 -4.350000e+01
    endloop
  endfacet
  facet normal 0.000000e+00 0.000000e+00 -1.000000e+00
    outer loop
      vertex   4.175000e+01 -6.000000e+00 -4.350000e+01
      vertex   4.175000e+01 2.000000e+00 -4.350000e+01
      vertex   4.425000e+01 -6.000000e+00 -4.350000e+01
    endloop
  endfacet
  facet normal 0.000000e+00 0.000000e+00 -1.000000e+00
    outer loop
      vertex   4.425000e+01 -6.000000e+00 -4.350000e+01
      vertex   4.175000e+01 2.000000e+00 -4.350000e+01
      vertex   4.425000e+01 2.000000e+00 -4.350000e+01
    endloop
  endfacet
  facet normal -0.000000e+00 -1.000000e+00 -0.000000e+00
    outer loop
      vertex   4.550000e+01 -2.150000e+01 -3.650000e+01
      vertex   4.050000e+01 -2.150000e+01 -3.650000e+01
      vertex   4.550000e+01 -2.150000e+01 -3.950000e+01
    endloop
  endfacet
  facet normal 0.000000e+00 -1.000000e+00 0.000000e+00
    outer loop
      vertex   4.550000e+01 -2.150000e+01 -3.950000e+01
      vertex   4.050000e+01 -2.150000e+01 -3.650000e+01
      vertex   4.050000e+01 -2.150000e+01 -3.950000e+01
    endloop
  endfacet
  facet normal 1.000000e+00 0.000000e+00 0.000000e+00
    outer loop
      vertex   4.550000e+01 1.750000e+01 -3.650000e+01
      vertex   4.550000e+01 -2.150000e+01 -3.650000e+01
      vertex   4.550000e+01 1.750000e+01 -3.950000e+01
    endloop
  endfacet
  facet normal 1.000000e+00 0.000000e+00 0.000000e+00
    outer loop
      vertex   4.550000e+01 1.750000e+01 -3.950000e+01
      vertex   4.550000e+01 -2.150000e+01 -3.650000e+01
      vertex   4.550000e+01 -2.150000e+01 -3.950000e+01
    endloop
  endfacet
  facet normal -0.000000e+00 1.000000e+00 0.000000e+00
    outer loop
      vertex   4.050000e+01 1.750000e+01 -3.650000e+01
      vertex   4.550000e+01 1.750000e+01 -3.650000e+01
      vertex   4.050000e+01 1.750000e+01 -3.950000e+01
    endloop
  endfacet
  facet normal 0.000000e+00 1.000000e+00 0.000000e+00
    outer loop
      vertex   4.050000e+01 1.750000e+01 -3.950000e+01
      vertex   4.550000e+01 1.750000e+01 -3.650000e+01
      vertex   4.550000e+01 1.750000e+01 -3.950000e+01
    endloop
  endfacet
  facet normal -1.000000e+00 0.000000e+00 0.000000e+00
    outer loop
      vertex   4.050000e+01 -2.150000e+01 -3.650000e+01
      vertex   4.050000e+01 1.750000e+01 -3.650000e+01
      vertex   4.050000e+01 -2.150000e+01 -3.950000e+01
    endloop
  endfacet
  facet normal -1.000000e+00 0.000000e+00 0.000000e+00
    outer loop
      vertex   4.050000e+01 -2.150000e+01 -3.950000e+01
      vertex   4.050000e+01 1.750000e+01 -3.650000e+01
      vertex   4.050000e+01 1.750000e+01 -3.950000e+01
    endloop
  endfacet
  facet normal 0.000000e+00 0.000000e+00 -1.000000e+00
    outer loop
      vertex   4.550000e+01 -2.150000e+01 -3.950000e+01
      vertex   4.050000e+01 -2.150000e+01 -3.950000e+01
      vertex   4.175000e+01 -6.000000e+00 -3.950000e+01
    endloop
  endfacet
  facet normal -0.000000e+00 0.000000e+00 -1.000000e+00
    outer loop
      vertex   4.175000e+01 -6.000000e+00 -3.950000e+01
      vertex   4.050000e+01 -2.150000e+01 -3.950000e+01
      vertex   4.050000e+01 1.750000e+01 -3.950000e+01
    endloop
  endfacet
  facet normal 0.000000e+00 0.000000e+00 -1.000000e+00
    outer loop
      vertex   4.175000e+01 -6.000000e+00 -3.950000e+01
      vertex   4.050000e+01 1.750000e+01 -3.950000e+01
      vertex   4.175000e+01 2.000000e+00 -3.950000e+01
    endloop
  endfacet
  facet normal 0.000000e+00 0.000000e+00 -1.000000e+00
    outer loop
      vertex   4.175000e+01 2.000000e+00 -3.950000e+01
      vertex   4.050000e+01 1.750000e+01 -3.950000e+01
      vertex   4.550000e+01 1.750000e+01 -3.950000e+01
    endloop
  endfacet
  facet normal 0.000000e+00 0.000000e+00 -1.000000e+00
    outer loop
      vertex   4.175000e+01 2.000000e+00 -3.950000e+01
      vertex   4.550000e+01 1.750000e+01 -3.950000e+01
      vertex   4.425000e+01 2.000000e+00 -3.950000e+01
    endloop
  endfacet
  facet normal 0.000000e+00 0.000000e+00 -1.000000e+00
    outer loop
      vertex   4.425000e+01 2.000000e+00 -3.950000e+01
      vertex   4.550000e+01 1.750000e+01 -3.950000e+01
      vertex   4.550000e+01 -2.150000e+01 -3.950000e+01
    endloop
  endfacet
  facet normal 0.000000e+00 0.000000e+00 -1.000000e+00
    outer loop
      vertex   4.425000e+01 2.000000e+00 -3.950000e+01
      vertex   4.550000e+01 -2.150000e+01 -3.950000e+01
      vertex   4.425000e+01 -6.000000e+00 -3.950000e+01
    endloop
  endfacet
  facet normal -0.000000e+00 -0.000000e+00 -1.000000e+00
    outer loop
      vertex   4.425000e+01 -6.000000e+00 -3.950000e+01
      vertex   4.550000e+01 -2.150000e+01 -3.950000e+01
      vertex   4.175000e+01 -6.000000e+00 -3.950000e+01
    endloop
  endfacet
  facet normal -0.000000e+00 0.000000e+00 1.000000e+00
    outer loop
      vertex   4.050000e+01 1.750000e+01 -3.650000e+01
      vertex   4.050000e+01 -2.150000e+01 -3.650000e+01
      vertex   4.550000e+01 1.750000e+01 -3.650000e+01
    endloop
  endfacet
  facet normal 0.000000e+00 0.000000e+00 1.000000e+00
    outer loop
      vertex   4.550000e+01 1.750000e+01 -3.650000e+01
      vertex   4.050000e+01 -2.150000e+01 -3.650000e+01
      vertex   4.550000e+01 -2.150000e+01 -3.650000e+01
    endloop
  endfacet
endsolid
