solid ASCII
  facet normal 1.000000e+00 0.000000e+00 -0.000000e+00
    outer loop
      vertex   3.050000e+01 3.550000e+01 1.500000e+00
      vertex   3.050000e+01 3.550000e+01 3.850000e+01
      vertex   3.050000e+01 3.500000e+01 1.500000e+00
    endloop
  endfacet
  facet normal 1.000000e+00 0.000000e+00 0.000000e+00
    outer loop
      vertex   3.050000e+01 3.500000e+01 1.500000e+00
      vertex   3.050000e+01 3.550000e+01 3.850000e+01
      vertex   3.050000e+01 3.500000e+01 3.850000e+01
    endloop
  endfacet
  facet normal 0.000000e+00 0.000000e+00 -1.000000e+00
    outer loop
      vertex   -3.550000e+01 3.550000e+01 1.500000e+00
      vertex   3.050000e+01 3.550000e+01 1.500000e+00
      vertex   -3.550000e+01 3.500000e+01 1.500000e+00
    endloop
  endfacet
  facet normal 0.000000e+00 0.000000e+00 -1.000000e+00
    outer loop
      vertex   -3.550000e+01 3.500000e+01 1.500000e+00
      vertex   3.050000e+01 3.550000e+01 1.500000e+00
      vertex   3.050000e+01 3.500000e+01 1.500000e+00
    endloop
  endfacet
  facet normal -1.000000e+00 -0.000000e+00 0.000000e+00
    outer loop
      vertex   -3.550000e+01 3.550000e+01 3.850000e+01
      vertex   -3.550000e+01 3.550000e+01 1.500000e+00
      vertex   -3.550000e+01 3.500000e+01 3.850000e+01
    endloop
  endfacet
  facet normal -1.000000e+00 0.000000e+00 -0.000000e+00
    outer loop
      vertex   -3.550000e+01 3.500000e+01 3.850000e+01
      vertex   -3.550000e+01 3.550000e+01 1.500000e+00
      vertex   -3.550000e+01 3.500000e+01 1.500000e+00
    endloop
  endfacet
  facet normal 0.000000e+00 0.000000e+00 1.000000e+00
    outer loop
      vertex   3.050000e+01 3.550000e+01 3.850000e+01
      vertex   -3.550000e+01 3.550000e+01 3.850000e+01
      vertex   3.050000e+01 3.500000e+01 3.850000e+01
    endloop
  endfacet
  facet normal 0.000000e+00 0.000000e+00 1.000000e+00
    outer loop
      vertex   3.050000e+01 3.500000e+01 3.850000e+01
      vertex   -3.550000e+01 3.550000e+01 3.850000e+01
      vertex   -3.550000e+01 3.500000e+01 3.850000e+01
    endloop
  endfacet
  facet normal 0.000000e+00 -1.000000e+00 1.152231e-15
    outer loop
      vertex   3.050000e+01 3.500000e+01 3.850000e+01
      vertex   -3.550000e+01 3.500000e+01 3.850000e+01
      vertex   3.050000e+01 3.500000e+01 1.500000e+00
    endloop
  endfacet
  facet normal 0.000000e+00 -1.000000e+00 1.152231e-15
    outer loop
      vertex   3.050000e+01 3.500000e+01 1.500000e+00
      vertex   -3.550000e+01 3.500000e+01 3.850000e+01
      vertex   -3.550000e+01 3.500000e+01 1.500000e+00
    endloop
  endfacet
  facet normal 0.000000e+00 1.000000e+00 -1.152231e-15
    outer loop
      vertex   -3.550000e+01 3.550000e+01 3.850000e+01
      vertex   3.050000e+01 3.550000e+01 3.850000e+01
      vertex   -3.550000e+01 3.550000e+01 1.500000e+00
    endloop
  endfacet
  facet normal 0.000000e+00 1.000000e+00 -1.152231e-15
    outer loop
      vertex   -3.550000e+01 3.550000e+01 1.500000e+00
      vertex   3.050000e+01 3.550000e+01 3.850000e+01
      vertex   3.050000e+01 3.550000e+01 1.500000e+00
    endloop
  endfacet
endsolid
