solid ASCII
  facet normal 0.000000e+00 0.000000e+00 -1.000000e+00
    outer loop
      vertex   2.920000e+01 -3.150000e+01 -3.850000e+01
      vertex   2.920000e+01 -2.450000e+01 -3.850000e+01
      vertex   3.020000e+01 -3.150000e+01 -3.850000e+01
    endloop
  endfacet
  facet normal 0.000000e+00 0.000000e+00 -1.000000e+00
    outer loop
      vertex   3.020000e+01 -3.150000e+01 -3.850000e+01
      vertex   2.920000e+01 -2.450000e+01 -3.850000e+01
      vertex   3.020000e+01 -2.450000e+01 -3.850000e+01
    endloop
  endfacet
  facet normal 0.000000e+00 -1.000000e+00 0.000000e+00
    outer loop
      vertex   2.920000e+01 -3.150000e+01 -2.850000e+01
      vertex   2.920000e+01 -3.150000e+01 -3.850000e+01
      vertex   3.020000e+01 -3.150000e+01 -2.850000e+01
    endloop
  endfacet
  facet normal 0.000000e+00 -1.000000e+00 -0.000000e+00
    outer loop
      vertex   3.020000e+01 -3.150000e+01 -2.850000e+01
      vertex   2.920000e+01 -3.150000e+01 -3.850000e+01
      vertex   3.020000e+01 -3.150000e+01 -3.850000e+01
    endloop
  endfacet
  facet normal -0.000000e+00 0.000000e+00 1.000000e+00
    outer loop
      vertex   2.920000e+01 -2.450000e+01 -2.850000e+01
      vertex   2.920000e+01 -3.150000e+01 -2.850000e+01
      vertex   3.020000e+01 -2.450000e+01 -2.850000e+01
    endloop
  endfacet
  facet normal 0.000000e+00 0.000000e+00 1.000000e+00
    outer loop
      vertex   3.020000e+01 -2.450000e+01 -2.850000e+01
      vertex   2.920000e+01 -3.150000e+01 -2.850000e+01
      vertex   3.020000e+01 -3.150000e+01 -2.850000e+01
    endloop
  endfacet
  facet normal 0.000000e+00 1.000000e+00 0.000000e+00
    outer loop
      vertex   2.920000e+01 -2.450000e+01 -3.850000e+01
      vertex   2.920000e+01 -2.450000e+01 -2.850000e+01
      vertex   3.020000e+01 -2.450000e+01 -3.850000e+01
    endloop
  endfacet
  facet normal 0.000000e+00 1.000000e+00 -0.000000e+00
    outer loop
      vertex   3.020000e+01 -2.450000e+01 -3.850000e+01
      vertex   2.920000e+01 -2.450000e+01 -2.850000e+01
      vertex   3.020000e+01 -2.450000e+01 -2.850000e+01
    endloop
  endfacet
  facet normal 1.000000e+00 0.000000e+00 -0.000000e+00
    outer loop
      vertex   3.020000e+01 -2.450000e+01 -3.850000e+01
      vertex   3.020000e+01 -2.450000e+01 -2.850000e+01
      vertex   3.020000e+01 -3.150000e+01 -3.850000e+01
    endloop
  endfacet
  facet normal 1.000000e+00 0.000000e+00 0.000000e+00
    outer loop
      vertex   3.020000e+01 -3.150000e+01 -3.850000e+01
      vertex   3.020000e+01 -2.450000e+01 -2.850000e+01
      vertex   3.020000e+01 -3.150000e+01 -2.850000e+01
    endloop
  endfacet
  facet normal -1.000000e+00 -0.000000e+00 -0.000000e+00
    outer loop
      vertex   2.920000e+01 -2.450000e+01 -2.850000e+01
      vertex   2.920000e+01 -2.450000e+01 -3.850000e+01
      vertex   2.920000e+01 -3.150000e+01 -2.850000e+01
    endloop
  endfacet
  facet normal -1.000000e+00 0.000000e+00 0.000000e+00
    outer loop
      vertex   2.920000e+01 -3.150000e+01 -2.850000e+01
      vertex   2.920000e+01 -2.450000e+01 -3.850000e+01
      vertex   2.920000e+01 -3.150000e+01 -3.850000e+01
    endloop
  endfacet
  facet normal 0.000000e+00 0.000000e+00 -1.000000e+00
    outer loop
      vertex   -2.480000e+01 -3.450000e+01 -3.850000e+01
      vertex   -3.180000e+01 -3.450000e+01 -3.850000e+01
      vertex   -2.480000e+01 -3.350000e+01 -3.850000e+01
    endloop
  endfacet
  facet normal -0.000000e+00 0.000000e+00 -1.000000e+00
    outer loop
      vertex   -2.480000e+01 -3.350000e+01 -3.850000e+01
      vertex   -3.180000e+01 -3.450000e+01 -3.850000e+01
      vertex   -3.180000e+01 -3.350000e+01 -3.850000e+01
    endloop
  endfacet
  facet normal 1.000000e+00 -0.000000e+00 0.000000e+00
    outer loop
      vertex   -2.480000e+01 -3.450000e+01 -2.850000e+01
      vertex   -2.480000e+01 -3.450000e+01 -3.850000e+01
      vertex   -2.480000e+01 -3.350000e+01 -2.850000e+01
    endloop
  endfacet
  facet normal 1.000000e+00 0.000000e+00 0.000000e+00
    outer loop
      vertex   -2.480000e+01 -3.350000e+01 -2.850000e+01
      vertex   -2.480000e+01 -3.450000e+01 -3.850000e+01
      vertex   -2.480000e+01 -3.350000e+01 -3.850000e+01
    endloop
  endfacet
  facet normal 0.000000e+00 0.000000e+00 1.000000e+00
    outer loop
      vertex   -3.180000e+01 -3.450000e+01 -2.850000e+01
      vertex   -2.480000e+01 -3.450000e+01 -2.850000e+01
      vertex   -3.180000e+01 -3.350000e+01 -2.850000e+01
    endloop
  endfacet
  facet normal -0.000000e+00 0.000000e+00 1.000000e+00
    outer loop
      vertex   -3.180000e+01 -3.350000e+01 -2.850000e+01
      vertex   -2.480000e+01 -3.450000e+01 -2.850000e+01
      vertex   -2.480000e+01 -3.350000e+01 -2.850000e+01
    endloop
  endfacet
  facet normal -1.000000e+00 0.000000e+00 0.000000e+00
    outer loop
      vertex   -3.180000e+01 -3.450000e+01 -3.850000e+01
      vertex   -3.180000e+01 -3.450000e+01 -2.850000e+01
      vertex   -3.180000e+01 -3.350000e+01 -3.850000e+01
    endloop
  endfacet
  facet normal -1.000000e+00 0.000000e+00 0.000000e+00
    outer loop
      vertex   -3.180000e+01 -3.350000e+01 -3.850000e+01
      vertex   -3.180000e+01 -3.450000e+01 -2.850000e+01
      vertex   -3.180000e+01 -3.350000e+01 -2.850000e+01
    endloop
  endfacet
  facet normal 0.000000e+00 1.000000e+00 0.000000e+00
    outer loop
      vertex   -3.180000e+01 -3.350000e+01 -3.850000e+01
      vertex   -3.180000e+01 -3.350000e+01 -2.850000e+01
      vertex   -2.480000e+01 -3.350000e+01 -3.850000e+01
    endloop
  endfacet
  facet normal 0.000000e+00 1.000000e+00 -0.000000e+00
    outer loop
      vertex   -2.480000e+01 -3.350000e+01 -3.850000e+01
      vertex   -3.180000e+01 -3.350000e+01 -2.850000e+01
      vertex   -2.480000e+01 -3.350000e+01 -2.850000e+01
    endloop
  endfacet
  facet normal 0.000000e+00 -1.000000e+00 0.000000e+00
    outer loop
      vertex   -3.180000e+01 -3.450000e+01 -2.850000e+01
      vertex   -3.180000e+01 -3.450000e+01 -3.850000e+01
      vertex   -2.480000e+01 -3.450000e+01 -2.850000e+01
    endloop
  endfacet
  facet normal 0.000000e+00 -1.000000e+00 -0.000000e+00
    outer loop
      vertex   -2.480000e+01 -3.450000e+01 -2.850000e+01
      vertex   -3.180000e+01 -3.450000e+01 -3.850000e+01
      vertex   -2.480000e+01 -3.450000e+01 -3.850000e+01
    endloop
  endfacet
  facet normal 0.000000e+00 0.000000e+00 -1.000000e+00
    outer loop
      vertex   2.920000e+01 2.500000e+01 -3.850000e+01
      vertex   2.920000e+01 3.200000e+01 -3.850000e+01
      vertex   3.020000e+01 2.500000e+01 -3.850000e+01
    endloop
  endfacet
  facet normal 0.000000e+00 0.000000e+00 -1.000000e+00
    outer loop
      vertex   3.020000e+01 2.500000e+01 -3.850000e+01
      vertex   2.920000e+01 3.200000e+01 -3.850000e+01
      vertex   3.020000e+01 3.200000e+01 -3.850000e+01
    endloop
  endfacet
  facet normal 0.000000e+00 -1.000000e+00 0.000000e+00
    outer loop
      vertex   2.920000e+01 2.500000e+01 -2.850000e+01
      vertex   2.920000e+01 2.500000e+01 -3.850000e+01
      vertex   3.020000e+01 2.500000e+01 -2.850000e+01
    endloop
  endfacet
  facet normal 0.000000e+00 -1.000000e+00 -0.000000e+00
    outer loop
      vertex   3.020000e+01 2.500000e+01 -2.850000e+01
      vertex   2.920000e+01 2.500000e+01 -3.850000e+01
      vertex   3.020000e+01 2.500000e+01 -3.850000e+01
    endloop
  endfacet
  facet normal -0.000000e+00 0.000000e+00 1.000000e+00
    outer loop
      vertex   2.920000e+01 3.200000e+01 -2.850000e+01
      vertex   2.920000e+01 2.500000e+01 -2.850000e+01
      vertex   3.020000e+01 3.200000e+01 -2.850000e+01
    endloop
  endfacet
  facet normal 0.000000e+00 0.000000e+00 1.000000e+00
    outer loop
      vertex   3.020000e+01 3.200000e+01 -2.850000e+01
      vertex   2.920000e+01 2.500000e+01 -2.850000e+01
      vertex   3.020000e+01 2.500000e+01 -2.850000e+01
    endloop
  endfacet
  facet normal 0.000000e+00 1.000000e+00 0.000000e+00
    outer loop
      vertex   2.920000e+01 3.200000e+01 -3.850000e+01
      vertex   2.920000e+01 3.200000e+01 -2.850000e+01
      vertex   3.020000e+01 3.200000e+01 -3.850000e+01
    endloop
  endfacet
  facet normal 0.000000e+00 1.000000e+00 -0.000000e+00
    outer loop
      vertex   3.020000e+01 3.200000e+01 -3.850000e+01
      vertex   2.920000e+01 3.200000e+01 -2.850000e+01
      vertex   3.020000e+01 3.200000e+01 -2.850000e+01
    endloop
  endfacet
  facet normal 1.000000e+00 0.000000e+00 -0.000000e+00
    outer loop
      vertex   3.020000e+01 3.200000e+01 -3.850000e+01
      vertex   3.020000e+01 3.200000e+01 -2.850000e+01
      vertex   3.020000e+01 2.500000e+01 -3.850000e+01
    endloop
  endfacet
  facet normal 1.000000e+00 0.000000e+00 0.000000e+00
    outer loop
      vertex   3.020000e+01 2.500000e+01 -3.850000e+01
      vertex   3.020000e+01 3.200000e+01 -2.850000e+01
      vertex   3.020000e+01 2.500000e+01 -2.850000e+01
    endloop
  endfacet
  facet normal -1.000000e+00 -0.000000e+00 -0.000000e+00
    outer loop
      vertex   2.920000e+01 3.200000e+01 -2.850000e+01
      vertex   2.920000e+01 3.200000e+01 -3.850000e+01
      vertex   2.920000e+01 2.500000e+01 -2.850000e+01
    endloop
  endfacet
  facet normal -1.000000e+00 0.000000e+00 0.000000e+00
    outer loop
      vertex   2.920000e+01 2.500000e+01 -2.850000e+01
      vertex   2.920000e+01 3.200000e+01 -3.850000e+01
      vertex   2.920000e+01 2.500000e+01 -3.850000e+01
    endloop
  endfacet
  facet normal 0.000000e+00 0.000000e+00 -1.000000e+00
    outer loop
      vertex   -3.480000e+01 -3.200000e+01 -3.850000e+01
      vertex   -3.480000e+01 -2.500000e+01 -3.850000e+01
      vertex   -3.380000e+01 -3.200000e+01 -3.850000e+01
    endloop
  endfacet
  facet normal 0.000000e+00 0.000000e+00 -1.000000e+00
    outer loop
      vertex   -3.380000e+01 -3.200000e+01 -3.850000e+01
      vertex   -3.480000e+01 -2.500000e+01 -3.850000e+01
      vertex   -3.380000e+01 -2.500000e+01 -3.850000e+01
    endloop
  endfacet
  facet normal 0.000000e+00 -1.000000e+00 0.000000e+00
    outer loop
      vertex   -3.480000e+01 -3.200000e+01 -2.850000e+01
      vertex   -3.480000e+01 -3.200000e+01 -3.850000e+01
      vertex   -3.380000e+01 -3.200000e+01 -2.850000e+01
    endloop
  endfacet
  facet normal 0.000000e+00 -1.000000e+00 -0.000000e+00
    outer loop
      vertex   -3.380000e+01 -3.200000e+01 -2.850000e+01
      vertex   -3.480000e+01 -3.200000e+01 -3.850000e+01
      vertex   -3.380000e+01 -3.200000e+01 -3.850000e+01
    endloop
  endfacet
  facet normal -0.000000e+00 0.000000e+00 1.000000e+00
    outer loop
      vertex   -3.480000e+01 -2.500000e+01 -2.850000e+01
      vertex   -3.480000e+01 -3.200000e+01 -2.850000e+01
      vertex   -3.380000e+01 -2.500000e+01 -2.850000e+01
    endloop
  endfacet
  facet normal 0.000000e+00 0.000000e+00 1.000000e+00
    outer loop
      vertex   -3.380000e+01 -2.500000e+01 -2.850000e+01
      vertex   -3.480000e+01 -3.200000e+01 -2.850000e+01
      vertex   -3.380000e+01 -3.200000e+01 -2.850000e+01
    endloop
  endfacet
  facet normal 0.000000e+00 1.000000e+00 0.000000e+00
    outer loop
      vertex   -3.480000e+01 -2.500000e+01 -3.850000e+01
      vertex   -3.480000e+01 -2.500000e+01 -2.850000e+01
      vertex   -3.380000e+01 -2.500000e+01 -3.850000e+01
    endloop
  endfacet
  facet normal 0.000000e+00 1.000000e+00 -0.000000e+00
    outer loop
      vertex   -3.380000e+01 -2.500000e+01 -3.850000e+01
      vertex   -3.480000e+01 -2.500000e+01 -2.850000e+01
      vertex   -3.380000e+01 -2.500000e+01 -2.850000e+01
    endloop
  endfacet
  facet normal 1.000000e+00 0.000000e+00 -0.000000e+00
    outer loop
      vertex   -3.380000e+01 -2.500000e+01 -3.850000e+01
      vertex   -3.380000e+01 -2.500000e+01 -2.850000e+01
      vertex   -3.380000e+01 -3.200000e+01 -3.850000e+01
    endloop
  endfacet
  facet normal 1.000000e+00 0.000000e+00 0.000000e+00
    outer loop
      vertex   -3.380000e+01 -3.200000e+01 -3.850000e+01
      vertex   -3.380000e+01 -2.500000e+01 -2.850000e+01
      vertex   -3.380000e+01 -3.200000e+01 -2.850000e+01
    endloop
  endfacet
  facet normal -1.000000e+00 -0.000000e+00 -0.000000e+00
    outer loop
      vertex   -3.480000e+01 -2.500000e+01 -2.850000e+01
      vertex   -3.480000e+01 -2.500000e+01 -3.850000e+01
      vertex   -3.480000e+01 -3.200000e+01 -2.850000e+01
    endloop
  endfacet
  facet normal -1.000000e+00 0.000000e+00 0.000000e+00
    outer loop
      vertex   -3.480000e+01 -3.200000e+01 -2.850000e+01
      vertex   -3.480000e+01 -2.500000e+01 -3.850000e+01
      vertex   -3.480000e+01 -3.200000e+01 -3.850000e+01
    endloop
  endfacet
  facet normal 0.000000e+00 0.000000e+00 -1.000000e+00
    outer loop
      vertex   -3.480000e+01 2.500000e+01 -3.850000e+01
      vertex   -3.480000e+01 3.200000e+01 -3.850000e+01
      vertex   -3.380000e+01 2.500000e+01 -3.850000e+01
    endloop
  endfacet
  facet normal 0.000000e+00 0.000000e+00 -1.000000e+00
    outer loop
      vertex   -3.380000e+01 2.500000e+01 -3.850000e+01
      vertex   -3.480000e+01 3.200000e+01 -3.850000e+01
      vertex   -3.380000e+01 3.200000e+01 -3.850000e+01
    endloop
  endfacet
  facet normal 0.000000e+00 -1.000000e+00 0.000000e+00
    outer loop
      vertex   -3.480000e+01 2.500000e+01 -2.850000e+01
      vertex   -3.480000e+01 2.500000e+01 -3.850000e+01
      vertex   -3.380000e+01 2.500000e+01 -2.850000e+01
    endloop
  endfacet
  facet normal 0.000000e+00 -1.000000e+00 -0.000000e+00
    outer loop
      vertex   -3.380000e+01 2.500000e+01 -2.850000e+01
      vertex   -3.480000e+01 2.500000e+01 -3.850000e+01
      vertex   -3.380000e+01 2.500000e+01 -3.850000e+01
    endloop
  endfacet
  facet normal -0.000000e+00 0.000000e+00 1.000000e+00
    outer loop
      vertex   -3.480000e+01 3.200000e+01 -2.850000e+01
      vertex   -3.480000e+01 2.500000e+01 -2.850000e+01
      vertex   -3.380000e+01 3.200000e+01 -2.850000e+01
    endloop
  endfacet
  facet normal 0.000000e+00 0.000000e+00 1.000000e+00
    outer loop
      vertex   -3.380000e+01 3.200000e+01 -2.850000e+01
      vertex   -3.480000e+01 2.500000e+01 -2.850000e+01
      vertex   -3.380000e+01 2.500000e+01 -2.850000e+01
    endloop
  endfacet
  facet normal 0.000000e+00 1.000000e+00 0.000000e+00
    outer loop
      vertex   -3.480000e+01 3.200000e+01 -3.850000e+01
      vertex   -3.480000e+01 3.200000e+01 -2.850000e+01
      vertex   -3.380000e+01 3.200000e+01 -3.850000e+01
    endloop
  endfacet
  facet normal 0.000000e+00 1.000000e+00 -0.000000e+00
    outer loop
      vertex   -3.380000e+01 3.200000e+01 -3.850000e+01
      vertex   -3.480000e+01 3.200000e+01 -2.850000e+01
      vertex   -3.380000e+01 3.200000e+01 -2.850000e+01
    endloop
  endfacet
  facet normal 1.000000e+00 0.000000e+00 -0.000000e+00
    outer loop
      vertex   -3.380000e+01 3.200000e+01 -3.850000e+01
      vertex   -3.380000e+01 3.200000e+01 -2.850000e+01
      vertex   -3.380000e+01 2.500000e+01 -3.850000e+01
    endloop
  endfacet
  facet normal 1.000000e+00 0.000000e+00 0.000000e+00
    outer loop
      vertex   -3.380000e+01 2.500000e+01 -3.850000e+01
      vertex   -3.380000e+01 3.200000e+01 -2.850000e+01
      vertex   -3.380000e+01 2.500000e+01 -2.850000e+01
    endloop
  endfacet
  facet normal -1.000000e+00 -0.000000e+00 -0.000000e+00
    outer loop
      vertex   -3.480000e+01 3.200000e+01 -2.850000e+01
      vertex   -3.480000e+01 3.200000e+01 -3.850000e+01
      vertex   -3.480000e+01 2.500000e+01 -2.850000e+01
    endloop
  endfacet
  facet normal -1.000000e+00 0.000000e+00 0.000000e+00
    outer loop
      vertex   -3.480000e+01 2.500000e+01 -2.850000e+01
      vertex   -3.480000e+01 3.200000e+01 -3.850000e+01
      vertex   -3.480000e+01 2.500000e+01 -3.850000e+01
    endloop
  endfacet
  facet normal 0.000000e+00 0.000000e+00 -1.000000e+00
    outer loop
      vertex   2.520000e+01 -3.500000e+01 -3.850000e+01
      vertex   1.820000e+01 -3.500000e+01 -3.850000e+01
      vertex   2.520000e+01 -3.400000e+01 -3.850000e+01
    endloop
  endfacet
  facet normal -0.000000e+00 0.000000e+00 -1.000000e+00
    outer loop
      vertex   2.520000e+01 -3.400000e+01 -3.850000e+01
      vertex   1.820000e+01 -3.500000e+01 -3.850000e+01
      vertex   1.820000e+01 -3.400000e+01 -3.850000e+01
    endloop
  endfacet
  facet normal 1.000000e+00 -0.000000e+00 0.000000e+00
    outer loop
      vertex   2.520000e+01 -3.500000e+01 -2.850000e+01
      vertex   2.520000e+01 -3.500000e+01 -3.850000e+01
      vertex   2.520000e+01 -3.400000e+01 -2.850000e+01
    endloop
  endfacet
  facet normal 1.000000e+00 0.000000e+00 0.000000e+00
    outer loop
      vertex   2.520000e+01 -3.400000e+01 -2.850000e+01
      vertex   2.520000e+01 -3.500000e+01 -3.850000e+01
      vertex   2.520000e+01 -3.400000e+01 -3.850000e+01
    endloop
  endfacet
  facet normal 0.000000e+00 0.000000e+00 1.000000e+00
    outer loop
      vertex   1.820000e+01 -3.500000e+01 -2.850000e+01
      vertex   2.520000e+01 -3.500000e+01 -2.850000e+01
      vertex   1.820000e+01 -3.400000e+01 -2.850000e+01
    endloop
  endfacet
  facet normal -0.000000e+00 0.000000e+00 1.000000e+00
    outer loop
      vertex   1.820000e+01 -3.400000e+01 -2.850000e+01
      vertex   2.520000e+01 -3.500000e+01 -2.850000e+01
      vertex   2.520000e+01 -3.400000e+01 -2.850000e+01
    endloop
  endfacet
  facet normal -1.000000e+00 0.000000e+00 0.000000e+00
    outer loop
      vertex   1.820000e+01 -3.500000e+01 -3.850000e+01
      vertex   1.820000e+01 -3.500000e+01 -2.850000e+01
      vertex   1.820000e+01 -3.400000e+01 -3.850000e+01
    endloop
  endfacet
  facet normal -1.000000e+00 0.000000e+00 0.000000e+00
    outer loop
      vertex   1.820000e+01 -3.400000e+01 -3.850000e+01
      vertex   1.820000e+01 -3.500000e+01 -2.850000e+01
      vertex   1.820000e+01 -3.400000e+01 -2.850000e+01
    endloop
  endfacet
  facet normal 0.000000e+00 1.000000e+00 0.000000e+00
    outer loop
      vertex   1.820000e+01 -3.400000e+01 -3.850000e+01
      vertex   1.820000e+01 -3.400000e+01 -2.850000e+01
      vertex   2.520000e+01 -3.400000e+01 -3.850000e+01
    endloop
  endfacet
  facet normal 0.000000e+00 1.000000e+00 -0.000000e+00
    outer loop
      vertex   2.520000e+01 -3.400000e+01 -3.850000e+01
      vertex   1.820000e+01 -3.400000e+01 -2.850000e+01
      vertex   2.520000e+01 -3.400000e+01 -2.850000e+01
    endloop
  endfacet
  facet normal 0.000000e+00 -1.000000e+00 0.000000e+00
    outer loop
      vertex   1.820000e+01 -3.500000e+01 -2.850000e+01
      vertex   1.820000e+01 -3.500000e+01 -3.850000e+01
      vertex   2.520000e+01 -3.500000e+01 -2.850000e+01
    endloop
  endfacet
  facet normal 0.000000e+00 -1.000000e+00 -0.000000e+00
    outer loop
      vertex   2.520000e+01 -3.500000e+01 -2.850000e+01
      vertex   1.820000e+01 -3.500000e+01 -3.850000e+01
      vertex   2.520000e+01 -3.500000e+01 -3.850000e+01
    endloop
  endfacet
  facet normal 0.000000e+00 0.000000e+00 -1.000000e+00
    outer loop
      vertex   -2.480000e+01 3.400000e+01 -3.850000e+01
      vertex   -3.180000e+01 3.400000e+01 -3.850000e+01
      vertex   -2.480000e+01 3.500000e+01 -3.850000e+01
    endloop
  endfacet
  facet normal -0.000000e+00 0.000000e+00 -1.000000e+00
    outer loop
      vertex   -2.480000e+01 3.500000e+01 -3.850000e+01
      vertex   -3.180000e+01 3.400000e+01 -3.850000e+01
      vertex   -3.180000e+01 3.500000e+01 -3.850000e+01
    endloop
  endfacet
  facet normal 1.000000e+00 -0.000000e+00 0.000000e+00
    outer loop
      vertex   -2.480000e+01 3.400000e+01 -2.850000e+01
      vertex   -2.480000e+01 3.400000e+01 -3.850000e+01
      vertex   -2.480000e+01 3.500000e+01 -2.850000e+01
    endloop
  endfacet
  facet normal 1.000000e+00 0.000000e+00 0.000000e+00
    outer loop
      vertex   -2.480000e+01 3.500000e+01 -2.850000e+01
      vertex   -2.480000e+01 3.400000e+01 -3.850000e+01
      vertex   -2.480000e+01 3.500000e+01 -3.850000e+01
    endloop
  endfacet
  facet normal 0.000000e+00 0.000000e+00 1.000000e+00
    outer loop
      vertex   -3.180000e+01 3.400000e+01 -2.850000e+01
      vertex   -2.480000e+01 3.400000e+01 -2.850000e+01
      vertex   -3.180000e+01 3.500000e+01 -2.850000e+01
    endloop
  endfacet
  facet normal -0.000000e+00 0.000000e+00 1.000000e+00
    outer loop
      vertex   -3.180000e+01 3.500000e+01 -2.850000e+01
      vertex   -2.480000e+01 3.400000e+01 -2.850000e+01
      vertex   -2.480000e+01 3.500000e+01 -2.850000e+01
    endloop
  endfacet
  facet normal -1.000000e+00 0.000000e+00 0.000000e+00
    outer loop
      vertex   -3.180000e+01 3.400000e+01 -3.850000e+01
      vertex   -3.180000e+01 3.400000e+01 -2.850000e+01
      vertex   -3.180000e+01 3.500000e+01 -3.850000e+01
    endloop
  endfacet
  facet normal -1.000000e+00 0.000000e+00 0.000000e+00
    outer loop
      vertex   -3.180000e+01 3.500000e+01 -3.850000e+01
      vertex   -3.180000e+01 3.400000e+01 -2.850000e+01
      vertex   -3.180000e+01 3.500000e+01 -2.850000e+01
    endloop
  endfacet
  facet normal 0.000000e+00 1.000000e+00 0.000000e+00
    outer loop
      vertex   -3.180000e+01 3.500000e+01 -3.850000e+01
      vertex   -3.180000e+01 3.500000e+01 -2.850000e+01
      vertex   -2.480000e+01 3.500000e+01 -3.850000e+01
    endloop
  endfacet
  facet normal 0.000000e+00 1.000000e+00 -0.000000e+00
    outer loop
      vertex   -2.480000e+01 3.500000e+01 -3.850000e+01
      vertex   -3.180000e+01 3.500000e+01 -2.850000e+01
      vertex   -2.480000e+01 3.500000e+01 -2.850000e+01
    endloop
  endfacet
  facet normal 0.000000e+00 -1.000000e+00 0.000000e+00
    outer loop
      vertex   -3.180000e+01 3.400000e+01 -2.850000e+01
      vertex   -3.180000e+01 3.400000e+01 -3.850000e+01
      vertex   -2.480000e+01 3.400000e+01 -2.850000e+01
    endloop
  endfacet
  facet normal 0.000000e+00 -1.000000e+00 -0.000000e+00
    outer loop
      vertex   -2.480000e+01 3.400000e+01 -2.850000e+01
      vertex   -3.180000e+01 3.400000e+01 -3.850000e+01
      vertex   -2.480000e+01 3.400000e+01 -3.850000e+01
    endloop
  endfacet
  facet normal 0.000000e+00 0.000000e+00 -1.000000e+00
    outer loop
      vertex   2.520000e+01 3.400000e+01 -3.850000e+01
      vertex   1.820000e+01 3.400000e+01 -3.850000e+01
      vertex   2.520000e+01 3.500000e+01 -3.850000e+01
    endloop
  endfacet
  facet normal -0.000000e+00 0.000000e+00 -1.000000e+00
    outer loop
      vertex   2.520000e+01 3.500000e+01 -3.850000e+01
      vertex   1.820000e+01 3.400000e+01 -3.850000e+01
      vertex   1.820000e+01 3.500000e+01 -3.850000e+01
    endloop
  endfacet
  facet normal 1.000000e+00 -0.000000e+00 0.000000e+00
    outer loop
      vertex   2.520000e+01 3.400000e+01 -2.850000e+01
      vertex   2.520000e+01 3.400000e+01 -3.850000e+01
      vertex   2.520000e+01 3.500000e+01 -2.850000e+01
    endloop
  endfacet
  facet normal 1.000000e+00 0.000000e+00 0.000000e+00
    outer loop
      vertex   2.520000e+01 3.500000e+01 -2.850000e+01
      vertex   2.520000e+01 3.400000e+01 -3.850000e+01
      vertex   2.520000e+01 3.500000e+01 -3.850000e+01
    endloop
  endfacet
  facet normal 0.000000e+00 0.000000e+00 1.000000e+00
    outer loop
      vertex   1.820000e+01 3.400000e+01 -2.850000e+01
      vertex   2.520000e+01 3.400000e+01 -2.850000e+01
      vertex   1.820000e+01 3.500000e+01 -2.850000e+01
    endloop
  endfacet
  facet normal -0.000000e+00 0.000000e+00 1.000000e+00
    outer loop
      vertex   1.820000e+01 3.500000e+01 -2.850000e+01
      vertex   2.520000e+01 3.400000e+01 -2.850000e+01
      vertex   2.520000e+01 3.500000e+01 -2.850000e+01
    endloop
  endfacet
  facet normal -1.000000e+00 0.000000e+00 0.000000e+00
    outer loop
      vertex   1.820000e+01 3.400000e+01 -3.850000e+01
      vertex   1.820000e+01 3.400000e+01 -2.850000e+01
      vertex   1.820000e+01 3.500000e+01 -3.850000e+01
    endloop
  endfacet
  facet normal -1.000000e+00 0.000000e+00 0.000000e+00
    outer loop
      vertex   1.820000e+01 3.500000e+01 -3.850000e+01
      vertex   1.820000e+01 3.400000e+01 -2.850000e+01
      vertex   1.820000e+01 3.500000e+01 -2.850000e+01
    endloop
  endfacet
  facet normal 0.000000e+00 1.000000e+00 0.000000e+00
    outer loop
      vertex   1.820000e+01 3.500000e+01 -3.850000e+01
      vertex   1.820000e+01 3.500000e+01 -2.850000e+01
      vertex   2.520000e+01 3.500000e+01 -3.850000e+01
    endloop
  endfacet
  facet normal 0.000000e+00 1.000000e+00 -0.000000e+00
    outer loop
      vertex   2.520000e+01 3.500000e+01 -3.850000e+01
      vertex   1.820000e+01 3.500000e+01 -2.850000e+01
      vertex   2.520000e+01 3.500000e+01 -2.850000e+01
    endloop
  endfacet
  facet normal 0.000000e+00 -1.000000e+00 0.000000e+00
    outer loop
      vertex   1.820000e+01 3.400000e+01 -2.850000e+01
      vertex   1.820000e+01 3.400000e+01 -3.850000e+01
      vertex   2.520000e+01 3.400000e+01 -2.850000e+01
    endloop
  endfacet
  facet normal 0.000000e+00 -1.000000e+00 -0.000000e+00
    outer loop
      vertex   2.520000e+01 3.400000e+01 -2.850000e+01
      vertex   1.820000e+01 3.400000e+01 -3.850000e+01
      vertex   2.520000e+01 3.400000e+01 -3.850000e+01
    endloop
  endfacet
endsolid
