solid ASCII
  facet normal 1.000000e+00 0.000000e+00 0.000000e+00
    outer loop
      vertex   2.920000e+01 -3.350000e+01 -3.950000e+01
      vertex   2.920000e+01 3.450000e+01 -3.950000e+01
      vertex   2.920000e+01 -3.350000e+01 -2.650000e+01
    endloop
  endfacet
  facet normal 1.000000e+00 -0.000000e+00 0.000000e+00
    outer loop
      vertex   2.920000e+01 -3.350000e+01 -2.650000e+01
      vertex   2.920000e+01 3.450000e+01 -3.950000e+01
      vertex   2.920000e+01 3.450000e+01 -2.650000e+01
    endloop
  endfacet
  facet normal -1.578984e-15 -1.000000e+00 0.000000e+00
    outer loop
      vertex   -3.380000e+01 -3.350000e+01 -3.950000e+01
      vertex   2.920000e+01 -3.350000e+01 -3.950000e+01
      vertex   -3.380000e+01 -3.350000e+01 -2.650000e+01
    endloop
  endfacet
  facet normal -1.578984e-15 -1.000000e+00 1.232896e-31
    outer loop
      vertex   -3.380000e+01 -3.350000e+01 -2.650000e+01
      vertex   2.920000e+01 -3.350000e+01 -3.950000e+01
      vertex   2.920000e+01 -3.350000e+01 -2.650000e+01
    endloop
  endfacet
  facet normal -1.000000e+00 0.000000e+00 0.000000e+00
    outer loop
      vertex   -3.380000e+01 3.450000e+01 -3.950000e+01
      vertex   -3.380000e+01 -3.350000e+01 -3.950000e+01
      vertex   -3.380000e+01 3.450000e+01 -2.650000e+01
    endloop
  endfacet
  facet normal -1.000000e+00 -0.000000e+00 0.000000e+00
    outer loop
      vertex   -3.380000e+01 3.450000e+01 -2.650000e+01
      vertex   -3.380000e+01 -3.350000e+01 -3.950000e+01
      vertex   -3.380000e+01 -3.350000e+01 -2.650000e+01
    endloop
  endfacet
  facet normal -1.578984e-15 1.000000e+00 0.000000e+00
    outer loop
      vertex   2.920000e+01 3.450000e+01 -3.950000e+01
      vertex   -3.380000e+01 3.450000e+01 -3.950000e+01
      vertex   2.920000e+01 3.450000e+01 -2.650000e+01
    endloop
  endfacet
  facet normal -1.578984e-15 1.000000e+00 -1.232896e-31
    outer loop
      vertex   2.920000e+01 3.450000e+01 -2.650000e+01
      vertex   -3.380000e+01 3.450000e+01 -3.950000e+01
      vertex   -3.380000e+01 3.450000e+01 -2.650000e+01
    endloop
  endfacet
  facet normal 0.000000e+00 0.000000e+00 1.000000e+00
    outer loop
      vertex   2.920000e+01 3.450000e+01 -2.650000e+01
      vertex   -3.380000e+01 3.450000e+01 -2.650000e+01
      vertex   2.920000e+01 -3.350000e+01 -2.650000e+01
    endloop
  endfacet
  facet normal 0.000000e+00 0.000000e+00 1.000000e+00
    outer loop
      vertex   2.920000e+01 -3.350000e+01 -2.650000e+01
      vertex   -3.380000e+01 3.450000e+01 -2.650000e+01
      vertex   -3.380000e+01 -3.350000e+01 -2.650000e+01
    endloop
  endfacet
  facet normal 0.000000e+00 0.000000e+00 -1.000000e+00
    outer loop
      vertex   -3.380000e+01 3.450000e+01 -3.950000e+01
      vertex   2.920000e+01 3.450000e+01 -3.950000e+01
      vertex   -3.380000e+01 -3.350000e+01 -3.950000e+01
    endloop
  endfacet
  facet normal 0.000000e+00 0.000000e+00 -1.000000e+00
    outer loop
      vertex   -3.380000e+01 -3.350000e+01 -3.950000e+01
      vertex   2.920000e+01 3.450000e+01 -3.950000e+01
      vertex   2.920000e+01 -3.350000e+01 -3.950000e+01
    endloop
  endfacet
endsolid
