solid ASCII
  facet normal 0.000000e+00 -1.000000e+00 0.000000e+00
    outer loop
      vertex   3.020000e+01 -3.200000e+01 -1.950000e+01
      vertex   3.020000e+01 -3.200000e+01 -4.500000e+00
      vertex   2.920000e+01 -3.200000e+01 -1.950000e+01
    endloop
  endfacet
  facet normal 0.000000e+00 -1.000000e+00 0.000000e+00
    outer loop
      vertex   2.920000e+01 -3.200000e+01 -1.950000e+01
      vertex   3.020000e+01 -3.200000e+01 -4.500000e+00
      vertex   2.920000e+01 -3.200000e+01 -4.500000e+00
    endloop
  endfacet
  facet normal -0.000000e+00 -0.000000e+00 -1.000000e+00
    outer loop
      vertex   3.020000e+01 -2.900000e+01 -1.950000e+01
      vertex   3.020000e+01 -3.200000e+01 -1.950000e+01
      vertex   2.920000e+01 -2.900000e+01 -1.950000e+01
    endloop
  endfacet
  facet normal 0.000000e+00 0.000000e+00 -1.000000e+00
    outer loop
      vertex   2.920000e+01 -2.900000e+01 -1.950000e+01
      vertex   3.020000e+01 -3.200000e+01 -1.950000e+01
      vertex   2.920000e+01 -3.200000e+01 -1.950000e+01
    endloop
  endfacet
  facet normal 0.000000e+00 1.000000e+00 0.000000e+00
    outer loop
      vertex   3.020000e+01 -2.900000e+01 -4.500000e+00
      vertex   3.020000e+01 -2.900000e+01 -1.950000e+01
      vertex   2.920000e+01 -2.900000e+01 -4.500000e+00
    endloop
  endfacet
  facet normal 0.000000e+00 1.000000e+00 0.000000e+00
    outer loop
      vertex   2.920000e+01 -2.900000e+01 -4.500000e+00
      vertex   3.020000e+01 -2.900000e+01 -1.950000e+01
      vertex   2.920000e+01 -2.900000e+01 -1.950000e+01
    endloop
  endfacet
  facet normal 0.000000e+00 -0.000000e+00 1.000000e+00
    outer loop
      vertex   3.020000e+01 -3.200000e+01 -4.500000e+00
      vertex   3.020000e+01 -2.900000e+01 -4.500000e+00
      vertex   2.920000e+01 -3.200000e+01 -4.500000e+00
    endloop
  endfacet
  facet normal 0.000000e+00 0.000000e+00 1.000000e+00
    outer loop
      vertex   2.920000e+01 -3.200000e+01 -4.500000e+00
      vertex   3.020000e+01 -2.900000e+01 -4.500000e+00
      vertex   2.920000e+01 -2.900000e+01 -4.500000e+00
    endloop
  endfacet
  facet normal -1.000000e+00 0.000000e+00 0.000000e+00
    outer loop
      vertex   2.920000e+01 -3.200000e+01 -4.500000e+00
      vertex   2.920000e+01 -2.900000e+01 -4.500000e+00
      vertex   2.920000e+01 -3.200000e+01 -1.950000e+01
    endloop
  endfacet
  facet normal -1.000000e+00 0.000000e+00 0.000000e+00
    outer loop
      vertex   2.920000e+01 -3.200000e+01 -1.950000e+01
      vertex   2.920000e+01 -2.900000e+01 -4.500000e+00
      vertex   2.920000e+01 -2.900000e+01 -1.950000e+01
    endloop
  endfacet
  facet normal 1.000000e+00 0.000000e+00 0.000000e+00
    outer loop
      vertex   3.020000e+01 -2.900000e+01 -4.500000e+00
      vertex   3.020000e+01 -3.200000e+01 -4.500000e+00
      vertex   3.020000e+01 -2.900000e+01 -1.950000e+01
    endloop
  endfacet
  facet normal 1.000000e+00 0.000000e+00 0.000000e+00
    outer loop
      vertex   3.020000e+01 -2.900000e+01 -1.950000e+01
      vertex   3.020000e+01 -3.200000e+01 -4.500000e+00
      vertex   3.020000e+01 -3.200000e+01 -1.950000e+01
    endloop
  endfacet
  facet normal 0.000000e+00 -1.000000e+00 0.000000e+00
    outer loop
      vertex   3.020000e+01 3.000000e+01 -1.950000e+01
      vertex   3.020000e+01 3.000000e+01 -4.500000e+00
      vertex   2.920000e+01 3.000000e+01 -1.950000e+01
    endloop
  endfacet
  facet normal 0.000000e+00 -1.000000e+00 0.000000e+00
    outer loop
      vertex   2.920000e+01 3.000000e+01 -1.950000e+01
      vertex   3.020000e+01 3.000000e+01 -4.500000e+00
      vertex   2.920000e+01 3.000000e+01 -4.500000e+00
    endloop
  endfacet
  facet normal -0.000000e+00 -0.000000e+00 -1.000000e+00
    outer loop
      vertex   3.020000e+01 3.300000e+01 -1.950000e+01
      vertex   3.020000e+01 3.000000e+01 -1.950000e+01
      vertex   2.920000e+01 3.300000e+01 -1.950000e+01
    endloop
  endfacet
  facet normal 0.000000e+00 0.000000e+00 -1.000000e+00
    outer loop
      vertex   2.920000e+01 3.300000e+01 -1.950000e+01
      vertex   3.020000e+01 3.000000e+01 -1.950000e+01
      vertex   2.920000e+01 3.000000e+01 -1.950000e+01
    endloop
  endfacet
  facet normal 0.000000e+00 1.000000e+00 0.000000e+00
    outer loop
      vertex   3.020000e+01 3.300000e+01 -4.500000e+00
      vertex   3.020000e+01 3.300000e+01 -1.950000e+01
      vertex   2.920000e+01 3.300000e+01 -4.500000e+00
    endloop
  endfacet
  facet normal 0.000000e+00 1.000000e+00 0.000000e+00
    outer loop
      vertex   2.920000e+01 3.300000e+01 -4.500000e+00
      vertex   3.020000e+01 3.300000e+01 -1.950000e+01
      vertex   2.920000e+01 3.300000e+01 -1.950000e+01
    endloop
  endfacet
  facet normal 0.000000e+00 -0.000000e+00 1.000000e+00
    outer loop
      vertex   3.020000e+01 3.000000e+01 -4.500000e+00
      vertex   3.020000e+01 3.300000e+01 -4.500000e+00
      vertex   2.920000e+01 3.000000e+01 -4.500000e+00
    endloop
  endfacet
  facet normal 0.000000e+00 0.000000e+00 1.000000e+00
    outer loop
      vertex   2.920000e+01 3.000000e+01 -4.500000e+00
      vertex   3.020000e+01 3.300000e+01 -4.500000e+00
      vertex   2.920000e+01 3.300000e+01 -4.500000e+00
    endloop
  endfacet
  facet normal -1.000000e+00 0.000000e+00 0.000000e+00
    outer loop
      vertex   2.920000e+01 3.000000e+01 -4.500000e+00
      vertex   2.920000e+01 3.300000e+01 -4.500000e+00
      vertex   2.920000e+01 3.000000e+01 -1.950000e+01
    endloop
  endfacet
  facet normal -1.000000e+00 0.000000e+00 0.000000e+00
    outer loop
      vertex   2.920000e+01 3.000000e+01 -1.950000e+01
      vertex   2.920000e+01 3.300000e+01 -4.500000e+00
      vertex   2.920000e+01 3.300000e+01 -1.950000e+01
    endloop
  endfacet
  facet normal 1.000000e+00 0.000000e+00 0.000000e+00
    outer loop
      vertex   3.020000e+01 3.300000e+01 -4.500000e+00
      vertex   3.020000e+01 3.000000e+01 -4.500000e+00
      vertex   3.020000e+01 3.300000e+01 -1.950000e+01
    endloop
  endfacet
  facet normal 1.000000e+00 0.000000e+00 0.000000e+00
    outer loop
      vertex   3.020000e+01 3.300000e+01 -1.950000e+01
      vertex   3.020000e+01 3.000000e+01 -4.500000e+00
      vertex   3.020000e+01 3.000000e+01 -1.950000e+01
    endloop
  endfacet
endsolid
