solid ASCII
  facet normal -1.000000e+00 -1.421085e-15 -0.000000e+00
    outer loop
      vertex   -6.000000e+00 -4.425000e+01 -4.000000e+01
      vertex   -6.000000e+00 -4.175000e+01 -4.000000e+01
      vertex   -6.000000e+00 -4.425000e+01 -4.400000e+01
    endloop
  endfacet
  facet normal -1.000000e+00 -1.421085e-15 0.000000e+00
    outer loop
      vertex   -6.000000e+00 -4.425000e+01 -4.400000e+01
      vertex   -6.000000e+00 -4.175000e+01 -4.000000e+01
      vertex   -6.000000e+00 -4.175000e+01 -4.400000e+01
    endloop
  endfacet
  facet normal 8.881784e-16 -1.000000e+00 0.000000e+00
    outer loop
      vertex   2.000000e+00 -4.425000e+01 -4.000000e+01
      vertex   -6.000000e+00 -4.425000e+01 -4.000000e+01
      vertex   2.000000e+00 -4.425000e+01 -4.400000e+01
    endloop
  endfacet
  facet normal 8.881784e-16 -1.000000e+00 0.000000e+00
    outer loop
      vertex   2.000000e+00 -4.425000e+01 -4.400000e+01
      vertex   -6.000000e+00 -4.425000e+01 -4.000000e+01
      vertex   -6.000000e+00 -4.425000e+01 -4.400000e+01
    endloop
  endfacet
  facet normal 1.000000e+00 1.065814e-15 0.000000e+00
    outer loop
      vertex   2.000000e+00 -4.175000e+01 -4.000000e+01
      vertex   2.000000e+00 -4.425000e+01 -4.000000e+01
      vertex   2.000000e+00 -4.175000e+01 -4.400000e+01
    endloop
  endfacet
  facet normal 1.000000e+00 1.065814e-15 0.000000e+00
    outer loop
      vertex   2.000000e+00 -4.175000e+01 -4.400000e+01
      vertex   2.000000e+00 -4.425000e+01 -4.000000e+01
      vertex   2.000000e+00 -4.425000e+01 -4.400000e+01
    endloop
  endfacet
  facet normal -8.881784e-16 1.000000e+00 0.000000e+00
    outer loop
      vertex   -6.000000e+00 -4.175000e+01 -4.000000e+01
      vertex   2.000000e+00 -4.175000e+01 -4.000000e+01
      vertex   -6.000000e+00 -4.175000e+01 -4.400000e+01
    endloop
  endfacet
  facet normal -8.881784e-16 1.000000e+00 0.000000e+00
    outer loop
      vertex   -6.000000e+00 -4.175000e+01 -4.400000e+01
      vertex   2.000000e+00 -4.175000e+01 -4.000000e+01
      vertex   2.000000e+00 -4.175000e+01 -4.400000e+01
    endloop
  endfacet
  facet normal 0.000000e+00 0.000000e+00 -1.000000e+00
    outer loop
      vertex   -6.000000e+00 -4.175000e+01 -4.400000e+01
      vertex   2.000000e+00 -4.175000e+01 -4.400000e+01
      vertex   -6.000000e+00 -4.425000e+01 -4.400000e+01
    endloop
  endfacet
  facet normal 0.000000e+00 0.000000e+00 -1.000000e+00
    outer loop
      vertex   -6.000000e+00 -4.425000e+01 -4.400000e+01
      vertex   2.000000e+00 -4.175000e+01 -4.400000e+01
      vertex   2.000000e+00 -4.425000e+01 -4.400000e+01
    endloop
  endfacet
  facet normal -1.000000e+00 -7.105427e-16 -0.000000e+00
    outer loop
      vertex   -2.150000e+01 -4.550000e+01 -3.700000e+01
      vertex   -2.150000e+01 -4.050000e+01 -3.700000e+01
      vertex   -2.150000e+01 -4.550000e+01 -4.000000e+01
    endloop
  endfacet
  facet normal -1.000000e+00 -7.105427e-16 0.000000e+00
    outer loop
      vertex   -2.150000e+01 -4.550000e+01 -4.000000e+01
      vertex   -2.150000e+01 -4.050000e+01 -3.700000e+01
      vertex   -2.150000e+01 -4.050000e+01 -4.000000e+01
    endloop
  endfacet
  facet normal 7.287618e-16 -1.000000e+00 0.000000e+00
    outer loop
      vertex   1.750000e+01 -4.550000e+01 -3.700000e+01
      vertex   -2.150000e+01 -4.550000e+01 -3.700000e+01
      vertex   1.750000e+01 -4.550000e+01 -4.000000e+01
    endloop
  endfacet
  facet normal 7.287618e-16 -1.000000e+00 0.000000e+00
    outer loop
      vertex   1.750000e+01 -4.550000e+01 -4.000000e+01
      vertex   -2.150000e+01 -4.550000e+01 -3.700000e+01
      vertex   -2.150000e+01 -4.550000e+01 -4.000000e+01
    endloop
  endfacet
  facet normal 1.000000e+00 7.105427e-16 0.000000e+00
    outer loop
      vertex   1.750000e+01 -4.050000e+01 -3.700000e+01
      vertex   1.750000e+01 -4.550000e+01 -3.700000e+01
      vertex   1.750000e+01 -4.050000e+01 -4.000000e+01
    endloop
  endfacet
  facet normal 1.000000e+00 7.105427e-16 0.000000e+00
    outer loop
      vertex   1.750000e+01 -4.050000e+01 -4.000000e+01
      vertex   1.750000e+01 -4.550000e+01 -3.700000e+01
      vertex   1.750000e+01 -4.550000e+01 -4.000000e+01
    endloop
  endfacet
  facet normal -7.287618e-16 1.000000e+00 0.000000e+00
    outer loop
      vertex   -2.150000e+01 -4.050000e+01 -3.700000e+01
      vertex   1.750000e+01 -4.050000e+01 -3.700000e+01
      vertex   -2.150000e+01 -4.050000e+01 -4.000000e+01
    endloop
  endfacet
  facet normal -7.287618e-16 1.000000e+00 0.000000e+00
    outer loop
      vertex   -2.150000e+01 -4.050000e+01 -4.000000e+01
      vertex   1.750000e+01 -4.050000e+01 -3.700000e+01
      vertex   1.750000e+01 -4.050000e+01 -4.000000e+01
    endloop
  endfacet
  facet normal 0.000000e+00 0.000000e+00 -1.000000e+00
    outer loop
      vertex   -2.150000e+01 -4.550000e+01 -4.000000e+01
      vertex   -2.150000e+01 -4.050000e+01 -4.000000e+01
      vertex   -6.000000e+00 -4.175000e+01 -4.000000e+01
    endloop
  endfacet
  facet normal 0.000000e+00 0.000000e+00 -1.000000e+00
    outer loop
      vertex   -6.000000e+00 -4.175000e+01 -4.000000e+01
      vertex   -2.150000e+01 -4.050000e+01 -4.000000e+01
      vertex   1.750000e+01 -4.050000e+01 -4.000000e+01
    endloop
  endfacet
  facet normal 0.000000e+00 0.000000e+00 -1.000000e+00
    outer loop
      vertex   -6.000000e+00 -4.175000e+01 -4.000000e+01
      vertex   1.750000e+01 -4.050000e+01 -4.000000e+01
      vertex   2.000000e+00 -4.175000e+01 -4.000000e+01
    endloop
  endfacet
  facet normal 0.000000e+00 0.000000e+00 -1.000000e+00
    outer loop
      vertex   2.000000e+00 -4.175000e+01 -4.000000e+01
      vertex   1.750000e+01 -4.050000e+01 -4.000000e+01
      vertex   1.750000e+01 -4.550000e+01 -4.000000e+01
    endloop
  endfacet
  facet normal 0.000000e+00 0.000000e+00 -1.000000e+00
    outer loop
      vertex   2.000000e+00 -4.175000e+01 -4.000000e+01
      vertex   1.750000e+01 -4.550000e+01 -4.000000e+01
      vertex   2.000000e+00 -4.425000e+01 -4.000000e+01
    endloop
  endfacet
  facet normal 0.000000e+00 -0.000000e+00 -1.000000e+00
    outer loop
      vertex   2.000000e+00 -4.425000e+01 -4.000000e+01
      vertex   1.750000e+01 -4.550000e+01 -4.000000e+01
      vertex   -2.150000e+01 -4.550000e+01 -4.000000e+01
    endloop
  endfacet
  facet normal 0.000000e+00 0.000000e+00 -1.000000e+00
    outer loop
      vertex   2.000000e+00 -4.425000e+01 -4.000000e+01
      vertex   -2.150000e+01 -4.550000e+01 -4.000000e+01
      vertex   -6.000000e+00 -4.425000e+01 -4.000000e+01
    endloop
  endfacet
  facet normal -0.000000e+00 0.000000e+00 -1.000000e+00
    outer loop
      vertex   -6.000000e+00 -4.425000e+01 -4.000000e+01
      vertex   -2.150000e+01 -4.550000e+01 -4.000000e+01
      vertex   -6.000000e+00 -4.175000e+01 -4.000000e+01
    endloop
  endfacet
  facet normal 0.000000e+00 0.000000e+00 1.000000e+00
    outer loop
      vertex   1.750000e+01 -4.050000e+01 -3.700000e+01
      vertex   -2.150000e+01 -4.050000e+01 -3.700000e+01
      vertex   1.750000e+01 -4.550000e+01 -3.700000e+01
    endloop
  endfacet
  facet normal 0.000000e+00 0.000000e+00 1.000000e+00
    outer loop
      vertex   1.750000e+01 -4.550000e+01 -3.700000e+01
      vertex   -2.150000e+01 -4.050000e+01 -3.700000e+01
      vertex   -2.150000e+01 -4.550000e+01 -3.700000e+01
    endloop
  endfacet
endsolid
