solid ASCII
  facet normal 0.000000e+00 0.000000e+00 -1.000000e+00
    outer loop
      vertex   3.900000e+01 -3.850000e+01 -3.650000e+01
      vertex   3.900000e+01 3.450000e+01 -3.650000e+01
      vertex   4.700000e+01 -3.850000e+01 -3.650000e+01
    endloop
  endfacet
  facet normal 0.000000e+00 0.000000e+00 -1.000000e+00
    outer loop
      vertex   4.700000e+01 -3.850000e+01 -3.650000e+01
      vertex   3.900000e+01 3.450000e+01 -3.650000e+01
      vertex   4.700000e+01 3.450000e+01 -3.650000e+01
    endloop
  endfacet
  facet normal 0.000000e+00 -1.000000e+00 -0.000000e+00
    outer loop
      vertex   3.900000e+01 -3.850000e+01 3.650000e+01
      vertex   3.900000e+01 -3.850000e+01 -3.650000e+01
      vertex   4.700000e+01 -3.850000e+01 3.650000e+01
    endloop
  endfacet
  facet normal 0.000000e+00 -1.000000e+00 0.000000e+00
    outer loop
      vertex   4.700000e+01 -3.850000e+01 3.650000e+01
      vertex   3.900000e+01 -3.850000e+01 -3.650000e+01
      vertex   4.700000e+01 -3.850000e+01 -3.650000e+01
    endloop
  endfacet
  facet normal -0.000000e+00 0.000000e+00 1.000000e+00
    outer loop
      vertex   3.900000e+01 3.450000e+01 3.650000e+01
      vertex   3.900000e+01 -3.850000e+01 3.650000e+01
      vertex   4.700000e+01 3.450000e+01 3.650000e+01
    endloop
  endfacet
  facet normal 0.000000e+00 0.000000e+00 1.000000e+00
    outer loop
      vertex   4.700000e+01 3.450000e+01 3.650000e+01
      vertex   3.900000e+01 -3.850000e+01 3.650000e+01
      vertex   4.700000e+01 -3.850000e+01 3.650000e+01
    endloop
  endfacet
  facet normal 0.000000e+00 1.000000e+00 0.000000e+00
    outer loop
      vertex   3.900000e+01 3.450000e+01 -3.650000e+01
      vertex   3.900000e+01 3.450000e+01 3.650000e+01
      vertex   4.700000e+01 3.450000e+01 -3.650000e+01
    endloop
  endfacet
  facet normal 0.000000e+00 1.000000e+00 -0.000000e+00
    outer loop
      vertex   4.700000e+01 3.450000e+01 -3.650000e+01
      vertex   3.900000e+01 3.450000e+01 3.650000e+01
      vertex   4.700000e+01 3.450000e+01 3.650000e+01
    endloop
  endfacet
  facet normal 1.000000e+00 0.000000e+00 -3.893385e-16
    outer loop
      vertex   4.700000e+01 3.450000e+01 -3.650000e+01
      vertex   4.700000e+01 3.450000e+01 3.650000e+01
      vertex   4.700000e+01 -3.850000e+01 -3.650000e+01
    endloop
  endfacet
  facet normal 1.000000e+00 0.000000e+00 -3.893385e-16
    outer loop
      vertex   4.700000e+01 -3.850000e+01 -3.650000e+01
      vertex   4.700000e+01 3.450000e+01 3.650000e+01
      vertex   4.700000e+01 -3.850000e+01 3.650000e+01
    endloop
  endfacet
  facet normal -1.000000e+00 0.000000e+00 3.893385e-16
    outer loop
      vertex   3.900000e+01 3.450000e+01 3.650000e+01
      vertex   3.900000e+01 3.450000e+01 -3.650000e+01
      vertex   3.900000e+01 -3.850000e+01 3.650000e+01
    endloop
  endfacet
  facet normal -1.000000e+00 0.000000e+00 3.893385e-16
    outer loop
      vertex   3.900000e+01 -3.850000e+01 3.650000e+01
      vertex   3.900000e+01 3.450000e+01 -3.650000e+01
      vertex   3.900000e+01 -3.850000e+01 -3.650000e+01
    endloop
  endfacet
endsolid
