solid ASCII
  facet normal -3.552714e-16 1.000000e+00 0.000000e+00
    outer loop
      vertex   -4.425000e+01 6.000000e+00 -4.000000e+01
      vertex   -4.175000e+01 6.000000e+00 -4.000000e+01
      vertex   -4.425000e+01 6.000000e+00 -4.400000e+01
    endloop
  endfacet
  facet normal -3.552714e-16 1.000000e+00 0.000000e+00
    outer loop
      vertex   -4.425000e+01 6.000000e+00 -4.400000e+01
      vertex   -4.175000e+01 6.000000e+00 -4.000000e+01
      vertex   -4.175000e+01 6.000000e+00 -4.400000e+01
    endloop
  endfacet
  facet normal -1.000000e+00 0.000000e+00 -1.776357e-15
    outer loop
      vertex   -4.425000e+01 -2.000000e+00 -4.000000e+01
      vertex   -4.425000e+01 6.000000e+00 -4.000000e+01
      vertex   -4.425000e+01 -2.000000e+00 -4.400000e+01
    endloop
  endfacet
  facet normal -1.000000e+00 -8.881784e-16 0.000000e+00
    outer loop
      vertex   -4.425000e+01 -2.000000e+00 -4.400000e+01
      vertex   -4.425000e+01 6.000000e+00 -4.000000e+01
      vertex   -4.425000e+01 6.000000e+00 -4.400000e+01
    endloop
  endfacet
  facet normal 5.329071e-16 -1.000000e+00 9.466331e-31
    outer loop
      vertex   -4.175000e+01 -2.000000e+00 -4.000000e+01
      vertex   -4.425000e+01 -2.000000e+00 -4.000000e+01
      vertex   -4.175000e+01 -2.000000e+00 -4.400000e+01
    endloop
  endfacet
  facet normal 5.329071e-16 -1.000000e+00 9.466331e-31
    outer loop
      vertex   -4.175000e+01 -2.000000e+00 -4.400000e+01
      vertex   -4.425000e+01 -2.000000e+00 -4.000000e+01
      vertex   -4.425000e+01 -2.000000e+00 -4.400000e+01
    endloop
  endfacet
  facet normal 1.000000e+00 0.000000e+00 0.000000e+00
    outer loop
      vertex   -4.175000e+01 6.000000e+00 -4.000000e+01
      vertex   -4.175000e+01 -2.000000e+00 -4.000000e+01
      vertex   -4.175000e+01 6.000000e+00 -4.400000e+01
    endloop
  endfacet
  facet normal 1.000000e+00 8.881784e-16 1.776357e-15
    outer loop
      vertex   -4.175000e+01 6.000000e+00 -4.400000e+01
      vertex   -4.175000e+01 -2.000000e+00 -4.000000e+01
      vertex   -4.175000e+01 -2.000000e+00 -4.400000e+01
    endloop
  endfacet
  facet normal 0.000000e+00 -0.000000e+00 -1.000000e+00
    outer loop
      vertex   -4.175000e+01 6.000000e+00 -4.400000e+01
      vertex   -4.175000e+01 -2.000000e+00 -4.400000e+01
      vertex   -4.425000e+01 6.000000e+00 -4.400000e+01
    endloop
  endfacet
  facet normal 0.000000e+00 0.000000e+00 -1.000000e+00
    outer loop
      vertex   -4.425000e+01 6.000000e+00 -4.400000e+01
      vertex   -4.175000e+01 -2.000000e+00 -4.400000e+01
      vertex   -4.425000e+01 -2.000000e+00 -4.400000e+01
    endloop
  endfacet
  facet normal -7.105427e-16 1.000000e+00 0.000000e+00
    outer loop
      vertex   -4.550000e+01 2.150000e+01 -3.700000e+01
      vertex   -4.050000e+01 2.150000e+01 -3.700000e+01
      vertex   -4.550000e+01 2.150000e+01 -4.000000e+01
    endloop
  endfacet
  facet normal -7.105427e-16 1.000000e+00 0.000000e+00
    outer loop
      vertex   -4.550000e+01 2.150000e+01 -4.000000e+01
      vertex   -4.050000e+01 2.150000e+01 -3.700000e+01
      vertex   -4.050000e+01 2.150000e+01 -4.000000e+01
    endloop
  endfacet
  facet normal -1.000000e+00 -3.643809e-16 -2.368476e-15
    outer loop
      vertex   -4.550000e+01 -1.750000e+01 -3.700000e+01
      vertex   -4.550000e+01 2.150000e+01 -3.700000e+01
      vertex   -4.550000e+01 -1.750000e+01 -4.000000e+01
    endloop
  endfacet
  facet normal -1.000000e+00 -5.465713e-16 0.000000e+00
    outer loop
      vertex   -4.550000e+01 -1.750000e+01 -4.000000e+01
      vertex   -4.550000e+01 2.150000e+01 -3.700000e+01
      vertex   -4.550000e+01 2.150000e+01 -4.000000e+01
    endloop
  endfacet
  facet normal 7.105427e-16 -1.000000e+00 1.682903e-30
    outer loop
      vertex   -4.050000e+01 -1.750000e+01 -3.700000e+01
      vertex   -4.550000e+01 -1.750000e+01 -3.700000e+01
      vertex   -4.050000e+01 -1.750000e+01 -4.000000e+01
    endloop
  endfacet
  facet normal 7.105427e-16 -1.000000e+00 1.682903e-30
    outer loop
      vertex   -4.050000e+01 -1.750000e+01 -4.000000e+01
      vertex   -4.550000e+01 -1.750000e+01 -3.700000e+01
      vertex   -4.550000e+01 -1.750000e+01 -4.000000e+01
    endloop
  endfacet
  facet normal 1.000000e+00 3.643809e-16 0.000000e+00
    outer loop
      vertex   -4.050000e+01 2.150000e+01 -3.700000e+01
      vertex   -4.050000e+01 -1.750000e+01 -3.700000e+01
      vertex   -4.050000e+01 2.150000e+01 -4.000000e+01
    endloop
  endfacet
  facet normal 1.000000e+00 5.465713e-16 2.368476e-15
    outer loop
      vertex   -4.050000e+01 2.150000e+01 -4.000000e+01
      vertex   -4.050000e+01 -1.750000e+01 -3.700000e+01
      vertex   -4.050000e+01 -1.750000e+01 -4.000000e+01
    endloop
  endfacet
  facet normal 0.000000e+00 0.000000e+00 -1.000000e+00
    outer loop
      vertex   -4.550000e+01 2.150000e+01 -4.000000e+01
      vertex   -4.050000e+01 2.150000e+01 -4.000000e+01
      vertex   -4.175000e+01 6.000000e+00 -4.000000e+01
    endloop
  endfacet
  facet normal 0.000000e+00 0.000000e+00 -1.000000e+00
    outer loop
      vertex   -4.175000e+01 6.000000e+00 -4.000000e+01
      vertex   -4.050000e+01 2.150000e+01 -4.000000e+01
      vertex   -4.050000e+01 -1.750000e+01 -4.000000e+01
    endloop
  endfacet
  facet normal 0.000000e+00 0.000000e+00 -1.000000e+00
    outer loop
      vertex   -4.175000e+01 6.000000e+00 -4.000000e+01
      vertex   -4.050000e+01 -1.750000e+01 -4.000000e+01
      vertex   -4.175000e+01 -2.000000e+00 -4.000000e+01
    endloop
  endfacet
  facet normal 0.000000e+00 -0.000000e+00 -1.000000e+00
    outer loop
      vertex   -4.175000e+01 -2.000000e+00 -4.000000e+01
      vertex   -4.050000e+01 -1.750000e+01 -4.000000e+01
      vertex   -4.550000e+01 -1.750000e+01 -4.000000e+01
    endloop
  endfacet
  facet normal 0.000000e+00 0.000000e+00 -1.000000e+00
    outer loop
      vertex   -4.175000e+01 -2.000000e+00 -4.000000e+01
      vertex   -4.550000e+01 -1.750000e+01 -4.000000e+01
      vertex   -4.425000e+01 -2.000000e+00 -4.000000e+01
    endloop
  endfacet
  facet normal -0.000000e+00 0.000000e+00 -1.000000e+00
    outer loop
      vertex   -4.425000e+01 -2.000000e+00 -4.000000e+01
      vertex   -4.550000e+01 -1.750000e+01 -4.000000e+01
      vertex   -4.550000e+01 2.150000e+01 -4.000000e+01
    endloop
  endfacet
  facet normal 0.000000e+00 0.000000e+00 -1.000000e+00
    outer loop
      vertex   -4.425000e+01 -2.000000e+00 -4.000000e+01
      vertex   -4.550000e+01 2.150000e+01 -4.000000e+01
      vertex   -4.425000e+01 6.000000e+00 -4.000000e+01
    endloop
  endfacet
  facet normal 0.000000e+00 0.000000e+00 -1.000000e+00
    outer loop
      vertex   -4.425000e+01 6.000000e+00 -4.000000e+01
      vertex   -4.550000e+01 2.150000e+01 -4.000000e+01
      vertex   -4.175000e+01 6.000000e+00 -4.000000e+01
    endloop
  endfacet
  facet normal 0.000000e+00 0.000000e+00 1.000000e+00
    outer loop
      vertex   -4.050000e+01 -1.750000e+01 -3.700000e+01
      vertex   -4.050000e+01 2.150000e+01 -3.700000e+01
      vertex   -4.550000e+01 -1.750000e+01 -3.700000e+01
    endloop
  endfacet
  facet normal 0.000000e+00 -0.000000e+00 1.000000e+00
    outer loop
      vertex   -4.550000e+01 -1.750000e+01 -3.700000e+01
      vertex   -4.050000e+01 2.150000e+01 -3.700000e+01
      vertex   -4.550000e+01 2.150000e+01 -3.700000e+01
    endloop
  endfacet
endsolid
