solid ASCII
  facet normal 0.000000e+00 -1.000000e+00 0.000000e+00
    outer loop
      vertex   3.220000e+01 -3.500000e+00 -3.175000e+01
      vertex   3.220000e+01 -3.500000e+00 -3.425000e+01
      vertex   3.620000e+01 -3.500000e+00 -3.175000e+01
    endloop
  endfacet
  facet normal 0.000000e+00 -1.000000e+00 -0.000000e+00
    outer loop
      vertex   3.620000e+01 -3.500000e+00 -3.175000e+01
      vertex   3.220000e+01 -3.500000e+00 -3.425000e+01
      vertex   3.620000e+01 -3.500000e+00 -3.425000e+01
    endloop
  endfacet
  facet normal -0.000000e+00 0.000000e+00 1.000000e+00
    outer loop
      vertex   3.220000e+01 4.500000e+00 -3.175000e+01
      vertex   3.220000e+01 -3.500000e+00 -3.175000e+01
      vertex   3.620000e+01 4.500000e+00 -3.175000e+01
    endloop
  endfacet
  facet normal 0.000000e+00 0.000000e+00 1.000000e+00
    outer loop
      vertex   3.620000e+01 4.500000e+00 -3.175000e+01
      vertex   3.220000e+01 -3.500000e+00 -3.175000e+01
      vertex   3.620000e+01 -3.500000e+00 -3.175000e+01
    endloop
  endfacet
  facet normal 0.000000e+00 1.000000e+00 0.000000e+00
    outer loop
      vertex   3.220000e+01 4.500000e+00 -3.425000e+01
      vertex   3.220000e+01 4.500000e+00 -3.175000e+01
      vertex   3.620000e+01 4.500000e+00 -3.425000e+01
    endloop
  endfacet
  facet normal 0.000000e+00 1.000000e+00 -0.000000e+00
    outer loop
      vertex   3.620000e+01 4.500000e+00 -3.425000e+01
      vertex   3.220000e+01 4.500000e+00 -3.175000e+01
      vertex   3.620000e+01 4.500000e+00 -3.175000e+01
    endloop
  endfacet
  facet normal 0.000000e+00 0.000000e+00 -1.000000e+00
    outer loop
      vertex   3.220000e+01 -3.500000e+00 -3.425000e+01
      vertex   3.220000e+01 4.500000e+00 -3.425000e+01
      vertex   3.620000e+01 -3.500000e+00 -3.425000e+01
    endloop
  endfacet
  facet normal 0.000000e+00 0.000000e+00 -1.000000e+00
    outer loop
      vertex   3.620000e+01 -3.500000e+00 -3.425000e+01
      vertex   3.220000e+01 4.500000e+00 -3.425000e+01
      vertex   3.620000e+01 4.500000e+00 -3.425000e+01
    endloop
  endfacet
  facet normal 1.000000e+00 0.000000e+00 0.000000e+00
    outer loop
      vertex   3.620000e+01 -3.500000e+00 -3.425000e+01
      vertex   3.620000e+01 4.500000e+00 -3.425000e+01
      vertex   3.620000e+01 -3.500000e+00 -3.175000e+01
    endloop
  endfacet
  facet normal 1.000000e+00 -0.000000e+00 0.000000e+00
    outer loop
      vertex   3.620000e+01 -3.500000e+00 -3.175000e+01
      vertex   3.620000e+01 4.500000e+00 -3.425000e+01
      vertex   3.620000e+01 4.500000e+00 -3.175000e+01
    endloop
  endfacet
  facet normal 0.000000e+00 -1.000000e+00 0.000000e+00
    outer loop
      vertex   2.920000e+01 -1.900000e+01 -3.050000e+01
      vertex   2.920000e+01 -1.900000e+01 -3.550000e+01
      vertex   3.220000e+01 -1.900000e+01 -3.050000e+01
    endloop
  endfacet
  facet normal 0.000000e+00 -1.000000e+00 -0.000000e+00
    outer loop
      vertex   3.220000e+01 -1.900000e+01 -3.050000e+01
      vertex   2.920000e+01 -1.900000e+01 -3.550000e+01
      vertex   3.220000e+01 -1.900000e+01 -3.550000e+01
    endloop
  endfacet
  facet normal -0.000000e+00 0.000000e+00 1.000000e+00
    outer loop
      vertex   2.920000e+01 2.000000e+01 -3.050000e+01
      vertex   2.920000e+01 -1.900000e+01 -3.050000e+01
      vertex   3.220000e+01 2.000000e+01 -3.050000e+01
    endloop
  endfacet
  facet normal 0.000000e+00 0.000000e+00 1.000000e+00
    outer loop
      vertex   3.220000e+01 2.000000e+01 -3.050000e+01
      vertex   2.920000e+01 -1.900000e+01 -3.050000e+01
      vertex   3.220000e+01 -1.900000e+01 -3.050000e+01
    endloop
  endfacet
  facet normal 0.000000e+00 1.000000e+00 0.000000e+00
    outer loop
      vertex   2.920000e+01 2.000000e+01 -3.550000e+01
      vertex   2.920000e+01 2.000000e+01 -3.050000e+01
      vertex   3.220000e+01 2.000000e+01 -3.550000e+01
    endloop
  endfacet
  facet normal 0.000000e+00 1.000000e+00 -0.000000e+00
    outer loop
      vertex   3.220000e+01 2.000000e+01 -3.550000e+01
      vertex   2.920000e+01 2.000000e+01 -3.050000e+01
      vertex   3.220000e+01 2.000000e+01 -3.050000e+01
    endloop
  endfacet
  facet normal 0.000000e+00 0.000000e+00 -1.000000e+00
    outer loop
      vertex   2.920000e+01 -1.900000e+01 -3.550000e+01
      vertex   2.920000e+01 2.000000e+01 -3.550000e+01
      vertex   3.220000e+01 -1.900000e+01 -3.550000e+01
    endloop
  endfacet
  facet normal 0.000000e+00 0.000000e+00 -1.000000e+00
    outer loop
      vertex   3.220000e+01 -1.900000e+01 -3.550000e+01
      vertex   2.920000e+01 2.000000e+01 -3.550000e+01
      vertex   3.220000e+01 2.000000e+01 -3.550000e+01
    endloop
  endfacet
  facet normal 1.000000e+00 0.000000e+00 0.000000e+00
    outer loop
      vertex   3.220000e+01 -1.900000e+01 -3.050000e+01
      vertex   3.220000e+01 -1.900000e+01 -3.550000e+01
      vertex   3.220000e+01 -3.500000e+00 -3.425000e+01
    endloop
  endfacet
  facet normal 1.000000e+00 0.000000e+00 0.000000e+00
    outer loop
      vertex   3.220000e+01 -3.500000e+00 -3.425000e+01
      vertex   3.220000e+01 -1.900000e+01 -3.550000e+01
      vertex   3.220000e+01 2.000000e+01 -3.550000e+01
    endloop
  endfacet
  facet normal 1.000000e+00 -0.000000e+00 0.000000e+00
    outer loop
      vertex   3.220000e+01 -3.500000e+00 -3.425000e+01
      vertex   3.220000e+01 2.000000e+01 -3.550000e+01
      vertex   3.220000e+01 4.500000e+00 -3.425000e+01
    endloop
  endfacet
  facet normal 1.000000e+00 -0.000000e+00 0.000000e+00
    outer loop
      vertex   3.220000e+01 4.500000e+00 -3.425000e+01
      vertex   3.220000e+01 2.000000e+01 -3.550000e+01
      vertex   3.220000e+01 2.000000e+01 -3.050000e+01
    endloop
  endfacet
  facet normal 1.000000e+00 0.000000e+00 0.000000e+00
    outer loop
      vertex   3.220000e+01 4.500000e+00 -3.425000e+01
      vertex   3.220000e+01 2.000000e+01 -3.050000e+01
      vertex   3.220000e+01 4.500000e+00 -3.175000e+01
    endloop
  endfacet
  facet normal 1.000000e+00 0.000000e+00 -0.000000e+00
    outer loop
      vertex   3.220000e+01 4.500000e+00 -3.175000e+01
      vertex   3.220000e+01 2.000000e+01 -3.050000e+01
      vertex   3.220000e+01 -1.900000e+01 -3.050000e+01
    endloop
  endfacet
  facet normal 1.000000e+00 0.000000e+00 0.000000e+00
    outer loop
      vertex   3.220000e+01 4.500000e+00 -3.175000e+01
      vertex   3.220000e+01 -1.900000e+01 -3.050000e+01
      vertex   3.220000e+01 -3.500000e+00 -3.175000e+01
    endloop
  endfacet
  facet normal 1.000000e+00 0.000000e+00 0.000000e+00
    outer loop
      vertex   3.220000e+01 -3.500000e+00 -3.175000e+01
      vertex   3.220000e+01 -1.900000e+01 -3.050000e+01
      vertex   3.220000e+01 -3.500000e+00 -3.425000e+01
    endloop
  endfacet
  facet normal -1.000000e+00 0.000000e+00 0.000000e+00
    outer loop
      vertex   2.920000e+01 2.000000e+01 -3.550000e+01
      vertex   2.920000e+01 -1.900000e+01 -3.550000e+01
      vertex   2.920000e+01 2.000000e+01 -3.050000e+01
    endloop
  endfacet
  facet normal -1.000000e+00 -0.000000e+00 0.000000e+00
    outer loop
      vertex   2.920000e+01 2.000000e+01 -3.050000e+01
      vertex   2.920000e+01 -1.900000e+01 -3.550000e+01
      vertex   2.920000e+01 -1.900000e+01 -3.050000e+01
    endloop
  endfacet
endsolid
