solid ASCII
  facet normal 1.421085e-14 -1.000000e+00 -1.637419e-29
    outer loop
      vertex   -3.500000e+01 -3.500000e+01 1.500000e+00
      vertex   -3.500000e+01 -3.500000e+01 3.850000e+01
      vertex   -3.550000e+01 -3.500000e+01 1.500000e+00
    endloop
  endfacet
  facet normal 1.421085e-14 -1.000000e+00 -1.637419e-29
    outer loop
      vertex   -3.550000e+01 -3.500000e+01 1.500000e+00
      vertex   -3.500000e+01 -3.500000e+01 3.850000e+01
      vertex   -3.550000e+01 -3.500000e+01 3.850000e+01
    endloop
  endfacet
  facet normal 0.000000e+00 -0.000000e+00 -1.000000e+00
    outer loop
      vertex   -3.500000e+01 3.500000e+01 1.500000e+00
      vertex   -3.500000e+01 -3.500000e+01 1.500000e+00
      vertex   -3.550000e+01 3.500000e+01 1.500000e+00
    endloop
  endfacet
  facet normal 0.000000e+00 0.000000e+00 -1.000000e+00
    outer loop
      vertex   -3.550000e+01 3.500000e+01 1.500000e+00
      vertex   -3.500000e+01 -3.500000e+01 1.500000e+00
      vertex   -3.550000e+01 -3.500000e+01 1.500000e+00
    endloop
  endfacet
  facet normal -1.421085e-14 1.000000e+00 1.637419e-29
    outer loop
      vertex   -3.500000e+01 3.500000e+01 3.850000e+01
      vertex   -3.500000e+01 3.500000e+01 1.500000e+00
      vertex   -3.550000e+01 3.500000e+01 3.850000e+01
    endloop
  endfacet
  facet normal -1.421085e-14 1.000000e+00 1.637419e-29
    outer loop
      vertex   -3.550000e+01 3.500000e+01 3.850000e+01
      vertex   -3.500000e+01 3.500000e+01 1.500000e+00
      vertex   -3.550000e+01 3.500000e+01 1.500000e+00
    endloop
  endfacet
  facet normal 0.000000e+00 0.000000e+00 1.000000e+00
    outer loop
      vertex   -3.500000e+01 -3.500000e+01 3.850000e+01
      vertex   -3.500000e+01 3.500000e+01 3.850000e+01
      vertex   -3.550000e+01 -3.500000e+01 3.850000e+01
    endloop
  endfacet
  facet normal 0.000000e+00 -0.000000e+00 1.000000e+00
    outer loop
      vertex   -3.550000e+01 -3.500000e+01 3.850000e+01
      vertex   -3.500000e+01 3.500000e+01 3.850000e+01
      vertex   -3.550000e+01 3.500000e+01 3.850000e+01
    endloop
  endfacet
  facet normal -1.000000e+00 -5.481330e-15 1.152231e-15
    outer loop
      vertex   -3.550000e+01 -3.500000e+01 3.850000e+01
      vertex   -3.550000e+01 3.500000e+01 3.850000e+01
      vertex   -3.550000e+01 -3.500000e+01 1.500000e+00
    endloop
  endfacet
  facet normal -1.000000e+00 -5.481330e-15 1.152231e-15
    outer loop
      vertex   -3.550000e+01 -3.500000e+01 1.500000e+00
      vertex   -3.550000e+01 3.500000e+01 3.850000e+01
      vertex   -3.550000e+01 3.500000e+01 1.500000e+00
    endloop
  endfacet
  facet normal 1.000000e+00 5.481330e-15 -1.152231e-15
    outer loop
      vertex   -3.500000e+01 3.500000e+01 3.850000e+01
      vertex   -3.500000e+01 -3.500000e+01 3.850000e+01
      vertex   -3.500000e+01 3.500000e+01 1.500000e+00
    endloop
  endfacet
  facet normal 1.000000e+00 5.481330e-15 -1.152231e-15
    outer loop
      vertex   -3.500000e+01 3.500000e+01 1.500000e+00
      vertex   -3.500000e+01 -3.500000e+01 3.850000e+01
      vertex   -3.500000e+01 -3.500000e+01 1.500000e+00
    endloop
  endfacet
endsolid
